<svg width="31" height="30" viewBox="0 0 31 30" fill="none" xmlns="http://www.w3.org/2000/svg">
<path d="M15.5 30L15.0804 29.9942C6.99413 29.7718 0.500001 23.1397 0.500001 15C0.500002 6.735 7.22 -2.0352e-06 15.5 -1.31134e-06C23.765 -5.88792e-07 30.5 6.735 30.5 15C30.5 23.28 23.765 30 15.5 30ZM12.53 21C12.98 21.45 13.685 21.45 14.12 21L19.355 15.795C19.565 15.585 19.685 15.3 19.685 15C19.685 14.7 19.565 14.415 19.355 14.205L14.12 9C13.91 8.775 13.625 8.67 13.34 8.67C13.04 8.67 12.755 8.775 12.53 9C12.095 9.45 12.095 10.155 12.545 10.59L16.97 15L12.545 19.41C12.095 19.845 12.095 20.565 12.53 21Z" fill="#FFB82F"/>
</svg>
