<svg width="56" height="55" viewBox="0 0 56 55" fill="none" xmlns="http://www.w3.org/2000/svg">
<path d="M43.342 1.52844L40.8101 13.7363H55.1239L52.592 1.52844L43.342 1.52844Z" fill="#FFD840"/>
<path d="M49.1962 29.5394V45.6804H6.80762V29.5394C6.80762 25.42 10.1442 22.0735 14.2638 22.0735H41.74C45.8594 22.0735 49.1962 25.4199 49.1962 29.5394Z" fill="#00CC99"/>
<path d="M0.875 35.8132L0.875 49.2969C0.875 49.9443 1.4 50.4694 2.04739 50.4694H53.9522C54.5996 50.4694 55.1247 49.9444 55.1247 49.2969V36.0057C55.1247 33.6782 53.2173 31.657 50.8984 31.7357C49.8223 31.7707 48.8597 32.2169 48.1509 32.9257C47.4073 33.6607 46.9522 34.6845 46.9522 35.8132V44.8078H9.04739V36.0057C9.04739 33.6782 7.14 31.657 4.82125 31.7357C3.745 31.7707 2.7825 32.2169 2.07375 32.9257C1.33 33.6607 0.875 34.6845 0.875 35.8132V35.8132Z" fill="#0F5EF7"/>
<path d="M47.6699 50.4585H53.3667V53.6353H47.6699V50.4585Z" fill="white"/>
<path d="M2.625 50.4585H8.3218V53.6353H2.625V50.4585Z" fill="white"/>
<path d="M40.6015 33.8748C40.6015 35.5897 39.2063 37.0139 37.4624 37.0139C35.7475 37.0139 34.3525 35.5898 34.3525 33.8748C34.3525 32.131 35.7475 30.736 37.4624 30.736C39.2062 30.736 40.6015 32.131 40.6015 33.8748Z" fill="white"/>
<path d="M15.3999 33.8748C15.3999 35.5897 16.7951 37.0139 18.539 37.0139C20.2539 37.0139 21.6488 35.5898 21.6488 33.8748C21.6488 32.131 20.2539 30.736 18.539 30.736C16.7951 30.736 15.3999 32.131 15.3999 33.8748Z" fill="white"/>
<path d="M50.8699 30.8544C50.599 30.8631 50.3339 30.9043 50.0721 30.9557V29.538C50.0721 27.9464 49.6173 26.463 48.843 25.1961V14.6114H51.3697V19.2073C51.3697 19.6905 51.7615 20.0823 52.2447 20.0823C52.7279 20.0823 53.1197 19.6905 53.1197 19.2073V14.6114H55.1248C55.6796 14.6114 56.0937 14.1011 55.9813 13.5587L53.4496 1.35071C53.3655 0.944817 53.0078 0.653442 52.5929 0.653442L43.3426 0.653442C42.9277 0.653442 42.5702 0.944817 42.4858 1.35071L39.9541 13.5587C39.8415 14.1022 40.2569 14.6114 40.8107 14.6114H47.0928V23.1493C45.6443 21.9288 43.7784 21.1903 41.742 21.1903H14.2586C9.66492 21.1903 5.92856 24.9354 5.92856 29.5377V30.9599C5.55658 30.8806 5.17639 30.8409 4.79238 30.8542C2.19745 30.9386 0 33.0533 0 35.8065L0 49.29C0 50.3191 0.765406 51.1648 1.75514 51.3083V53.6393C1.75514 54.1225 2.14692 54.5143 2.63014 54.5143H8.32705C8.81027 54.5143 9.20205 54.1225 9.20205 53.6393V51.3378H46.7974V53.6393C46.7974 54.1225 47.1892 54.5143 47.6724 54.5143H53.3693C53.8525 54.5143 54.2443 54.1225 54.2443 53.6393V51.3083C55.2343 51.165 55.9999 50.3192 55.9999 49.29V35.999C55.9998 33.1657 53.6703 30.7581 50.8699 30.8544ZM44.0549 2.40333H51.8808L54.05 12.8614H41.8858L44.0549 2.40333ZM48.3222 29.538V31.665C46.8606 32.624 46.0772 34.1693 46.0772 35.8066V43.9259H28.8749V22.9405H41.7421C45.3647 22.9405 48.3222 25.898 48.3222 29.538ZM7.67867 29.538C7.67867 25.898 10.6362 22.9405 14.2587 22.9405H27.125V43.9259H9.92228V35.9987C9.92228 34.3574 9.12494 32.7246 7.67845 31.7212L7.67867 29.538ZM7.45205 52.7644H3.50514V51.3378H7.45205V52.7644ZM52.4943 52.7644H48.5474V51.3378H52.4943V52.7644ZM54.2499 49.29C54.2499 49.7326 53.6259 49.5489 53.3694 49.5878C36.4686 49.5878 17.5826 49.5878 2.63025 49.5878C2.36469 49.5475 1.75 49.7316 1.75 49.29L1.75 35.8066C1.75 34.0497 3.14595 32.6589 4.85045 32.6035C4.88425 32.6023 4.9175 32.6018 4.95086 32.6018C6.72405 32.6018 8.17217 34.1954 8.17217 35.9987V44.8008C8.17217 45.284 8.56395 45.6758 9.04717 45.6758H46.9518C47.4351 45.6758 47.8268 45.284 47.8268 44.8008V35.8065C47.8268 34.0404 49.2313 32.6584 50.9278 32.6034C52.7423 32.5262 54.2497 34.1735 54.2497 35.9986L54.2499 49.29Z" fill="black"/>
<path d="M37.4624 37.8884C39.6755 37.8884 41.4764 36.0876 41.4764 33.8745C41.4764 31.6614 39.6755 29.861 37.4624 29.861C35.2651 29.861 33.4775 31.6614 33.4775 33.8745C33.4775 36.0876 35.2651 37.8884 37.4624 37.8884ZM37.4624 31.611C38.7317 31.611 39.7264 32.6052 39.7264 33.8745C39.7264 35.1229 38.7108 36.1384 37.4624 36.1384C36.2302 36.1384 35.2274 35.1229 35.2274 33.8745C35.2274 32.6265 36.2302 31.611 37.4624 31.611Z" fill="black"/>
<path d="M18.5389 37.8884C20.7362 37.8884 22.5237 36.0876 22.5237 33.8745C22.5237 31.6614 20.7361 29.861 18.5389 29.861C16.3258 29.861 14.5249 31.6614 14.5249 33.8745C14.5249 36.0876 16.3257 37.8884 18.5389 37.8884ZM18.5389 31.611C19.7711 31.611 20.7738 32.6265 20.7738 33.8745C20.7738 35.1229 19.7711 36.1384 18.5389 36.1384C17.2904 36.1384 16.2749 35.1229 16.2749 33.8745C16.2748 32.6051 17.2694 31.611 18.5389 31.611Z" fill="black"/>
</svg>
