<svg width="57" height="56" viewBox="0 0 57 56" fill="none" xmlns="http://www.w3.org/2000/svg">
<path d="M1.8042 19.3354L28.9292 1.83545L56.0542 19.3354L53.3592 25.4692L28.9292 9.71045L4.4992 25.4692L1.8042 19.3354Z" fill="#F0B76C"/>
<path d="M32.4292 36.8354V29.8354C32.4292 28.9072 32.0604 28.017 31.4041 27.3606C30.7477 26.7042 29.8575 26.3354 28.9292 26.3354C28.0009 26.3354 27.1107 26.7042 26.4543 27.3606C25.7979 28.017 25.4292 28.9072 25.4292 29.8354V36.8354H21.9292V29.8354C21.9292 27.9789 22.6667 26.1985 23.9795 24.8857C25.2922 23.5729 27.0727 22.8354 28.9292 22.8354C30.7857 22.8354 32.5662 23.5729 33.8789 24.8857C35.1917 26.1985 35.9292 27.9789 35.9292 29.8354V36.8354H32.4292Z" fill="#FF15E8"/>
<path d="M35.9292 36.8354H21.9292C19.9962 36.8354 18.4292 38.4025 18.4292 40.3354V50.8354C18.4292 52.7684 19.9962 54.3354 21.9292 54.3354H35.9292C37.8622 54.3354 39.4292 52.7684 39.4292 50.8354V40.3354C39.4292 38.4025 37.8622 36.8354 35.9292 36.8354Z" fill="#00CC99"/>
<path d="M26.5919 50.8313C26.4557 50.833 26.3212 50.8022 26.1994 50.7413C26.0776 50.6804 25.9722 50.5912 25.8919 50.4813C25.8085 50.3729 25.7517 50.2464 25.726 50.1121C25.7003 49.9778 25.7065 49.8393 25.744 49.7078L26.8815 45.7125L26.5823 45.3573C26.2059 44.9112 25.9648 44.3668 25.8874 43.7883C25.81 43.2098 25.8996 42.6212 26.1456 42.0918C26.3915 41.5625 26.7836 41.1145 27.2756 40.8006C27.7677 40.4866 28.3392 40.3198 28.9229 40.3198C29.5066 40.3198 30.0781 40.4866 30.5701 40.8006C31.0622 41.1145 31.4543 41.5625 31.7002 42.0918C31.9462 42.6212 32.0357 43.2098 31.9584 43.7883C31.881 44.3668 31.6399 44.9112 31.2635 45.3573L30.9643 45.7125L32.1018 49.713C32.1379 49.843 32.1438 49.9796 32.1188 50.1122C32.0939 50.2449 32.0389 50.37 31.958 50.478C31.8771 50.586 31.7725 50.6741 31.6523 50.7353C31.532 50.7965 31.3993 50.8294 31.2644 50.8313H26.5919Z" fill="white"/>
<path d="M56.5273 18.6001L29.4023 1.10012C29.2609 1.00894 29.0963 0.960449 28.9281 0.960449C28.7598 0.960449 28.5952 1.00894 28.4538 1.10012L1.3288 18.6001C1.15456 18.7129 1.02607 18.8839 0.966288 19.0827C0.906502 19.2814 0.919312 19.4949 1.00243 19.6851L3.69743 25.8189C3.74838 25.9347 3.82385 26.0381 3.91864 26.122C4.01343 26.2058 4.12528 26.2681 4.24647 26.3045C4.36767 26.341 4.49532 26.3507 4.62063 26.333C4.74594 26.3153 4.86592 26.2707 4.9723 26.2021L7.92805 24.2972V50.8351C7.92805 51.0672 8.02024 51.2897 8.18434 51.4538C8.34843 51.6179 8.57099 51.7101 8.80305 51.7101H14.9281C15.1601 51.7101 15.3827 51.6179 15.5468 51.4538C15.7109 51.2897 15.8031 51.0672 15.8031 50.8351C15.8031 50.6031 15.7109 50.3805 15.5468 50.2164C15.3827 50.0523 15.1601 49.9601 14.9281 49.9601H9.67805V23.172L28.9281 10.747L48.1781 23.172V49.9601H42.9281C42.696 49.9601 42.4734 50.0523 42.3093 50.2164C42.1452 50.3805 42.0531 50.6031 42.0531 50.8351C42.0531 51.0672 42.1452 51.2897 42.3093 51.4538C42.4734 51.6179 42.696 51.7101 42.9281 51.7101H49.0531C49.2851 51.7101 49.5077 51.6179 49.6718 51.4538C49.8359 51.2897 49.9281 51.0672 49.9281 50.8351V24.2972L52.8838 26.2039C53.0251 26.2952 53.1898 26.3438 53.3581 26.3439C53.5281 26.3436 53.6944 26.2938 53.8365 26.2006C53.9787 26.1073 54.0907 25.9747 54.1587 25.8189L56.8537 19.6851C56.9368 19.4949 56.9496 19.2814 56.8898 19.0827C56.83 18.8839 56.7016 18.7129 56.5273 18.6001ZM53.914 22.0282C53.419 23.1552 52.0331 23.5719 50.9987 22.9046L29.4023 8.97424C29.2609 8.88307 29.0963 8.83457 28.9281 8.83457C28.7598 8.83457 28.5952 8.88307 28.4538 8.97424L6.85745 22.9046C5.82303 23.5719 4.43715 23.1552 3.94217 22.0282L3.59012 21.2266C3.19515 20.3273 3.51168 19.2742 4.33703 18.7418L28.9281 2.87637L53.5191 18.7418C54.3444 19.2742 54.661 20.3273 54.266 21.2266L53.914 22.0282Z" fill="black"/>
<path d="M36.8042 36.0479V29.8354C36.8042 27.7469 35.9745 25.7438 34.4977 24.267C33.0208 22.7901 31.0178 21.9604 28.9292 21.9604C26.8406 21.9604 24.8376 22.7901 23.3607 24.267C21.8839 25.7438 21.0542 27.7469 21.0542 29.8354V36.0479C20.0666 36.2509 19.1792 36.7882 18.5416 37.5692C17.9041 38.3502 17.5553 39.3272 17.5542 40.3354V50.8354C17.5556 51.9953 18.017 53.1073 18.8371 53.9275C19.6573 54.7477 20.7693 55.2091 21.9292 55.2104H35.9292C37.0891 55.2091 38.2011 54.7477 39.0213 53.9275C39.8414 53.1073 40.3028 51.9953 40.3042 50.8354V40.3354C40.3031 39.3272 39.9543 38.3502 39.3168 37.5692C38.6792 36.7882 37.7918 36.2509 36.8042 36.0479ZM22.8042 29.8354C22.8042 28.211 23.4495 26.6531 24.5982 25.5044C25.7468 24.3558 27.3047 23.7104 28.9292 23.7104C30.5537 23.7104 32.1116 24.3558 33.2602 25.5044C34.4089 26.6531 35.0542 28.211 35.0542 29.8354V35.9604H33.3042V29.8354C33.3042 28.6751 32.8433 27.5623 32.0228 26.7419C31.2023 25.9214 30.0895 25.4604 28.9292 25.4604C27.7689 25.4604 26.6561 25.9214 25.8356 26.7419C25.0151 27.5623 24.5542 28.6751 24.5542 29.8354V35.9604H22.8042V29.8354ZM31.5542 29.8354V35.9604H26.3042V29.8354C26.3042 29.1393 26.5808 28.4716 27.073 27.9793C27.5653 27.487 28.233 27.2104 28.9292 27.2104C29.6254 27.2104 30.2931 27.487 30.7854 27.9793C31.2776 28.4716 31.5542 29.1393 31.5542 29.8354ZM38.5542 50.8354C38.5542 51.5316 38.2776 52.1993 37.7854 52.6916C37.2931 53.1839 36.6254 53.4604 35.9292 53.4604H21.9292C21.233 53.4604 20.5653 53.1839 20.073 52.6916C19.5808 52.1993 19.3042 51.5316 19.3042 50.8354V40.3354C19.3042 39.6393 19.5808 38.9716 20.073 38.4793C20.5653 37.987 21.233 37.7104 21.9292 37.7104H35.9292C36.6254 37.7104 37.2931 37.987 37.7854 38.4793C38.2776 38.9716 38.5542 39.6393 38.5542 40.3354V50.8354Z" fill="black"/>
<path d="M31.9339 45.9188C32.4177 45.3452 32.7274 44.6453 32.8268 43.9016C32.9261 43.1578 32.8108 42.4012 32.4946 41.7208C32.1783 41.0403 31.6742 40.4644 31.0416 40.0608C30.409 39.6573 29.6743 39.4429 28.9239 39.4429C28.1736 39.4429 27.4388 39.6573 26.8062 40.0608C26.1736 40.4644 25.6695 41.0403 25.3533 41.7208C25.037 42.4012 24.9217 43.1578 25.0211 43.9016C25.1204 44.6453 25.4302 45.3452 25.9139 45.9188L24.8989 49.4713C24.826 49.7322 24.8143 50.0064 24.8648 50.2726C24.9154 50.5387 25.0267 50.7896 25.1902 51.0056C25.3537 51.2216 25.5649 51.3969 25.8073 51.5178C26.0497 51.6387 26.3168 51.7019 26.5877 51.7026H31.2602C31.5311 51.7019 31.7981 51.6387 32.0406 51.5178C32.283 51.3969 32.4942 51.2216 32.6577 51.0056C32.8211 50.7896 32.9325 50.5387 32.983 50.2726C33.0335 50.0064 33.0219 49.7322 32.9489 49.4713L31.9339 45.9188ZM26.5877 49.9526L27.7427 45.9101C27.7852 45.7516 27.7832 45.5844 27.7369 45.4269C27.6906 45.2695 27.6018 45.1278 27.4802 45.0176C27.247 44.8153 27.06 44.5653 26.9317 44.2845C26.8034 44.0038 26.7368 43.6988 26.7364 43.3901C26.7356 43.0607 26.8091 42.7355 26.9515 42.4385C27.0939 42.1416 27.3016 41.8806 27.5589 41.6751C27.9481 41.3689 28.4288 41.2025 28.9239 41.2025C29.419 41.2025 29.8998 41.3689 30.2889 41.6751C30.5463 41.8806 30.7539 42.1416 30.8963 42.4385C31.0387 42.7355 31.1123 43.0607 31.1114 43.3901C31.111 43.6988 31.0444 44.0038 30.9161 44.2845C30.7878 44.5653 30.6008 44.8153 30.3677 45.0176C30.2461 45.1278 30.1573 45.2695 30.1109 45.4269C30.0646 45.5844 30.0626 45.7516 30.1052 45.9101L31.2602 49.9526H26.5877Z" fill="black"/>
</svg>
