<svg width="66" height="60" viewBox="0 0 66 60" fill="none" xmlns="http://www.w3.org/2000/svg">
<g clip-path="url(#clip0_41_722)">
<path fill-rule="evenodd" clip-rule="evenodd" d="M33.6683 2.92856L57.5059 20.2482C59.1278 21.4265 59.4932 23.7008 58.3163 25.325C57.7467 26.1111 56.9037 26.6285 55.945 26.7813C54.9876 26.9338 54.0247 26.7062 53.2401 26.1361L31.7331 10.5098C31.6543 10.4526 31.5601 10.4218 31.4627 10.4218C31.3657 10.4218 31.2718 10.4529 31.1934 10.5098L9.68592 26.136C8.06387 27.3144 5.78538 26.9474 4.60972 25.3249C3.43267 23.7004 3.79852 21.4256 5.42057 20.2472L29.3301 2.87693C30.6328 1.93048 32.3759 1.94906 33.6591 2.92156L33.6683 2.92856ZM9.24126 39.7654C9.24126 40.6533 8.51909 41.375 7.63114 41.375C6.74342 41.375 6.02217 40.653 6.02217 39.7654C6.02217 38.8778 6.74342 38.1557 7.63114 38.1557C8.51909 38.1557 9.24126 38.8774 9.24126 39.7654Z" fill="#0F5EF7"/>
<path d="M7.63928 41.3755C8.52723 41.3755 9.2494 40.6538 9.2494 39.7658C9.2494 38.8779 8.52723 38.1562 7.63928 38.1562C6.75157 38.1562 6.03031 38.8782 6.03031 39.7658C6.03031 40.6534 6.75157 41.3755 7.63928 41.3755Z" fill="#FFD840"/>
<path d="M36.6788 33.444C36.6788 32.1781 35.6487 31.1496 34.383 31.1496H28.5415C27.2765 31.1496 26.2473 32.179 26.2473 33.444V36.3348H31.0261C31.1608 36.3348 31.289 36.3948 31.3759 36.4973L33.7254 39.269C33.8367 39.4001 33.8652 39.5864 33.7978 39.7448L32.4468 42.918C32.3747 43.0875 32.2083 43.1963 32.0242 43.1963H29.606C29.4585 43.1963 29.3205 43.1258 29.2342 43.0061L27.776 40.9815L26.2473 43.1059V52.6242H36.6788V33.444Z" fill="#00CC99"/>
<path fill-rule="evenodd" clip-rule="evenodd" d="M7.62968 40.9209C6.99538 40.9209 6.4796 40.4046 6.4796 39.7701C6.4796 39.1357 6.99538 38.6193 7.62968 38.6193C8.26455 38.6193 8.78091 39.1357 8.78091 39.7701C8.78091 40.4045 8.26455 40.9209 7.62968 40.9209ZM7.62968 36.7838C5.98377 36.7838 4.6437 38.1237 4.6437 39.7701C4.6437 41.4165 5.98377 42.7564 7.62968 42.7564C9.27617 42.7564 10.6162 41.4165 10.6162 39.7701C10.6162 38.1237 9.27617 36.7838 7.62968 36.7838ZM57.9433 25.0604C57.4454 25.7477 56.7104 26.1997 55.8714 26.3326C55.033 26.4669 54.1942 26.266 53.5084 25.7694L32.0014 10.1433C31.8396 10.0262 31.6501 9.96771 31.4613 9.96771C31.2719 9.96771 31.0825 10.0262 30.9222 10.1433L9.41475 25.7695C7.99725 26.7961 6.00775 26.4783 4.97984 25.0604C3.95205 23.6413 4.26971 21.6521 5.68882 20.6232L29.5983 3.25293C30.7386 2.42602 32.2585 2.44162 33.3805 3.29205C33.3848 3.29675 33.3908 3.30008 33.3956 3.30352L57.2348 20.6242C58.6534 21.6521 58.9717 23.6413 57.9433 25.0604ZM49.5699 47.2328V25.1765L31.4613 12.0201L13.3533 25.1765V33.3595C14.3334 33.987 15.1707 34.8428 15.7866 35.8798H24.869V33.4478C24.869 31.4241 26.5165 29.7767 28.5402 29.7767H34.3818C36.407 29.7767 38.054 31.424 38.054 33.4478V52.1691H44.6337C47.3556 52.1691 49.5699 49.955 49.5699 47.2328ZM13.3533 47.2328V46.1808C14.3334 45.5533 15.1707 44.6974 15.7866 43.6592H22.2857C22.5801 43.6592 22.8578 43.5182 23.0299 43.2782L24.1157 41.7707L24.869 42.817V52.1691H18.2899C15.5674 52.1691 13.3533 49.955 13.3533 47.2328ZM36.2187 52.1691H26.7049V43.2576L27.7749 41.7707L28.8607 43.2782C29.0327 43.5181 29.3099 43.6592 29.6049 43.6592H32.0231C32.3917 43.6592 32.7239 43.4402 32.8679 43.1016L34.2188 39.9284C34.3541 39.6094 34.2979 39.24 34.0743 38.9762L31.7248 36.2046C31.5505 35.9993 31.2946 35.8798 31.025 35.8798H26.7049V33.4478C26.7049 32.436 27.5286 31.6122 28.5402 31.6122H34.3818C35.395 31.6122 36.2187 32.436 36.2187 33.4478V52.1691ZM3.48169 39.7701C3.48169 42.9513 6.06992 45.5396 9.24967 45.5396C11.4562 45.5396 13.4371 44.3108 14.4206 42.333C14.5754 42.0209 14.8932 41.8237 15.2417 41.8237H21.8155L23.371 39.6634C23.5431 39.4236 23.8207 39.2814 24.1158 39.2814C24.4101 39.2814 24.6879 39.4236 24.86 39.6634L25.9457 41.171L27.0308 39.6634C27.2029 39.4236 27.4806 39.2814 27.775 39.2814C28.07 39.2814 28.3477 39.4236 28.5198 39.6634L30.0753 41.8237H31.4165L32.3079 39.7312L30.5998 37.7156H15.2416C14.8931 37.7156 14.5753 37.5181 14.4205 37.2061C13.4371 35.2295 11.4562 34.0008 9.24955 34.0008C6.06992 34.0006 3.48169 36.5889 3.48169 39.7701ZM58.3129 19.1386L34.4819 1.82361C32.7115 0.488367 30.3172 0.464046 28.5197 1.76728L4.61181 19.1374C2.37325 20.7595 1.87203 23.8994 3.49305 26.1377C5.1151 28.3747 8.25537 28.876 10.4934 27.2551L11.5179 26.5106V32.5071C10.7965 32.2834 10.0345 32.1652 9.24967 32.1652C5.0567 32.1652 1.64648 35.5771 1.64648 39.7702C1.64648 43.9633 5.05682 47.3752 9.24967 47.3752C10.0345 47.3752 10.7966 47.2557 11.5179 47.0334V47.233C11.5179 50.9671 14.5559 54.005 18.2899 54.005H44.6339C48.3678 54.005 51.4058 50.9672 51.4058 47.233V26.5108L52.4298 27.2555C53.2952 27.8818 54.3127 28.2099 55.36 28.2099C55.6263 28.2099 55.8931 28.1879 56.1621 28.1457C57.4833 27.9345 58.6448 27.2209 59.4291 26.1381C61.0516 23.8995 60.5499 20.7595 58.3129 19.1386Z" fill="black"/>
</g>
<defs>
<clipPath id="clip0_41_722">
<rect width="65" height="58.7349" fill="white" transform="translate(0.998047 0.585571)"/>
</clipPath>
</defs>
</svg>
