<svg width="20" height="20" viewBox="0 0 20 20" fill="none" xmlns="http://www.w3.org/2000/svg">
<g clip-path="url(#clip0_1948_13303)">
<path d="M1.30459 1.38854C-0.262557 3.01603 0.0581852 4.74487 0.0581852 9.99704C0.0581852 14.3586 -0.702955 18.731 3.28057 19.7603C4.52448 20.0802 15.5461 20.0802 16.7883 19.7587C18.4469 19.3308 19.7963 17.9858 19.9808 15.6405C20.0065 15.3132 20.0065 4.68672 19.98 4.35275C19.7838 1.8546 18.2458 0.41487 16.2191 0.123268C15.7546 0.0559748 15.6616 0.0360361 13.2784 0.0318823C4.82528 0.0360361 2.97229 -0.340305 1.30459 1.38854Z" fill="url(#paint0_linear_1948_13303)"/>
<path d="M10.5002 3.00723C7.4282 3.00723 4.51104 2.73417 3.3968 5.59154C2.93655 6.77169 3.00339 8.30435 3.00339 10.4989C3.00339 12.4247 2.94162 14.2347 3.3968 15.4055C4.5085 18.2646 7.44935 17.9907 10.4985 17.9907C13.4402 17.9907 16.4733 18.2967 17.601 15.4055C18.0621 14.2135 17.9944 12.7037 17.9944 10.4989C17.9944 7.57226 18.156 5.68284 16.7355 4.2643C15.2973 2.82716 13.3522 3.00723 10.4968 3.00723H10.5002ZM9.82843 4.35729C16.2364 4.34715 17.052 3.63534 16.6019 13.5237C16.442 17.021 13.7769 16.6372 10.501 16.6372C4.52796 16.6372 4.35621 16.4664 4.35621 10.4956C4.35621 4.45536 4.83 4.36068 9.82843 4.3556V4.35729ZM14.502 5.60084C14.0053 5.60084 13.6026 6.00324 13.6026 6.49947C13.6026 6.99571 14.0053 7.39811 14.502 7.39811C14.9986 7.39811 15.4013 6.99571 15.4013 6.49947C15.4013 6.00324 14.9986 5.60084 14.502 5.60084ZM10.5002 6.65164C8.37408 6.65164 6.65068 8.37452 6.65068 10.4989C6.65068 12.6234 8.37408 14.3454 10.5002 14.3454C12.6263 14.3454 14.3488 12.6234 14.3488 10.4989C14.3488 8.37452 12.6263 6.65164 10.5002 6.65164ZM10.5002 8.00171C13.804 8.00171 13.8082 12.9962 10.5002 12.9962C7.19723 12.9962 7.19215 8.00171 10.5002 8.00171Z" fill="white"/>
</g>
<defs>
<linearGradient id="paint0_linear_1948_13303" x1="1.34283" y1="18.697" x2="19.8742" y2="2.65517" gradientUnits="userSpaceOnUse">
<stop stop-color="#FFDD55"/>
<stop offset="0.5" stop-color="#FF543E"/>
<stop offset="1" stop-color="#C837AB"/>
</linearGradient>
<clipPath id="clip0_1948_13303">
<rect width="20" height="20" fill="white"/>
</clipPath>
</defs>
</svg>
