<svg width="56" height="57" viewBox="0 0 56 57" fill="none" xmlns="http://www.w3.org/2000/svg">
<g clip-path="url(#clip0_41_747)">
<path d="M17.7275 3.38007V14.5799H0.927734L0.927734 3.38007C0.930725 2.3504 1.76471 1.51642 2.79437 1.51343L15.8608 1.51343C16.8905 1.51642 17.7245 2.3504 17.7275 3.38007Z" fill="#F0B76C"/>
<path d="M17.7275 14.5859V15.9113L17.1768 27.6524H0.927734L0.927734 14.5859H17.7275Z" fill="#F0B76C"/>
<path d="M17.1768 27.6584L15.8608 55.6584H2.79437C1.76471 55.6555 0.930725 54.8215 0.927734 53.7918L0.927734 27.6584H17.1768Z" fill="#F0B76C"/>
<path d="M27.1171 38.849H7.0874L22.1051 30.1785L27.1171 38.849Z" fill="white"/>
<path d="M41.8144 38.1922L40.6664 38.8549H27.1146L22.1025 30.1843L33.4143 23.6509L41.8144 38.1922Z" fill="white"/>
<path d="M51.5221 32.5837L41.8249 38.1836L41.3955 37.4367L33.4248 23.6423L42.2914 18.5277L43.122 18.0423C43.5514 17.792 44.0624 17.7236 44.5426 17.8514C45.0224 17.9791 45.4317 18.2931 45.6795 18.7234L52.213 30.0356C52.4599 30.4649 52.5257 30.9746 52.3962 31.4527C52.2664 31.9308 51.9519 32.3376 51.5221 32.5837V32.5837Z" fill="white"/>
<path d="M48.8997 33.1194L41.3955 37.45L33.4248 23.6555L42.2914 18.5409C42.6136 18.6973 42.8802 18.9481 43.0571 19.2595L49.5901 30.5713C49.837 31.0007 49.9028 31.5108 49.7734 31.9885C49.6439 32.4666 49.3295 32.8733 48.8997 33.1194Z" fill="white"/>
<path d="M38.5338 13.4601L32.9339 23.1573L18.3926 14.7572L23.9925 5.06001C24.2386 4.6302 24.6453 4.31575 25.1234 4.18587C25.6015 4.05641 26.1112 4.12221 26.5406 4.36916L37.8528 10.9026C38.283 11.1504 38.597 11.5597 38.7248 12.0395C38.8525 12.5197 38.7842 13.0307 38.5338 13.4601Z" fill="#0F5EF7"/>
<path d="M32.94 23.1611L32.2773 24.3091L20.5922 31.1595L20.5456 31.0852L11.8652 26.0732L17.736 15.909L18.3987 14.761L32.94 23.1611Z" fill="#0F5EF7"/>
<path d="M20.5975 31.1699L7.47461 38.8607H4.49756L11.8705 26.0835L20.5509 31.0955L20.5975 31.1699Z" fill="#0F5EF7"/>
<path d="M15.8608 38.8584V55.6581H2.79437C1.76471 55.6552 0.930725 54.8212 0.927734 53.7915L0.927734 40.725C0.930725 39.6954 1.76471 38.8614 2.79437 38.8584H15.8608Z" fill="white"/>
<path d="M15.8726 38.8584H28.9395V55.6581H15.8726V38.8584Z" fill="#FF15E8"/>
<path d="M28.9277 38.8584H41.9942V55.6581H28.9277V38.8584Z" fill="#FF15E8"/>
<path d="M55.0665 40.725V53.7915C55.0635 54.8212 54.2295 55.6552 53.1998 55.6581H42V38.8584H53.1998C54.2295 38.8614 55.0635 39.6954 55.0665 40.725V40.725Z" fill="#FF15E8"/>
<path d="M52.2667 40.725V53.7915C52.2637 54.8212 51.4297 55.6552 50.4001 55.6581H42V38.8584H50.4001C51.4297 38.8614 52.2637 39.6954 52.2667 40.725V40.725Z" fill="#FF15E8"/>
<path d="M12.1273 47.2587C12.1273 48.8049 10.8737 50.0584 9.32709 50.0584C7.78088 50.0584 6.52734 48.8049 6.52734 47.2587C6.52734 45.712 7.78088 44.4585 9.32709 44.4585C10.8737 44.4585 12.1273 45.712 12.1273 47.2587V47.2587Z" fill="#FF15E8"/>
<path d="M15.8666 56.5859H2.80017C1.25439 56.5842 0.00170898 55.3315 0 53.7858L0 3.38611C0.00170898 1.84033 1.25439 0.587646 2.80017 0.585938L15.8666 0.585937C17.4124 0.587646 18.6651 1.84033 18.6668 3.38611V15.9113C18.6668 16.4269 18.249 16.8448 17.7333 16.8448C17.218 16.8448 16.8002 16.4269 16.8002 15.9113V3.38611C16.7993 2.87085 16.3819 2.45343 15.8666 2.45258H2.80017C2.28491 2.45343 1.86749 2.87085 1.86664 3.38611L1.86664 53.7858C1.86749 54.301 2.28491 54.7184 2.80017 54.7193H15.8666C16.3823 54.7193 16.8002 55.1371 16.8002 55.6524C16.8002 56.1681 16.3823 56.5859 15.8666 56.5859Z" fill="#05000E"/>
<path d="M53.1998 56.5803H2.80017C1.25439 56.5786 0.00170898 55.3259 0 53.7801L0 40.7136C0.00170898 39.1678 1.25439 37.9152 2.80017 37.9135H53.1998C54.7456 37.9152 55.9983 39.1678 56 40.7136V53.7801C55.9983 55.3259 54.7456 56.5786 53.1998 56.5803V56.5803ZM2.80017 39.7801C2.28491 39.7809 1.86749 40.1984 1.86664 40.7136L1.86664 53.7801C1.86749 54.2953 2.28491 54.7128 2.80017 54.7136H53.1998C53.7151 54.7128 54.1325 54.2953 54.1334 53.7801V40.7136C54.1325 40.1984 53.7151 39.7809 53.1998 39.7801H2.80017Z" fill="#05000E"/>
<path d="M40.676 39.7874C40.2535 39.7883 39.8831 39.5046 39.7737 39.0961C39.6639 38.6881 39.8425 38.257 40.2086 38.046L51.0538 31.783C51.27 31.6608 51.4281 31.4574 51.4935 31.2182C51.5588 30.9785 51.5255 30.723 51.4012 30.5081L44.8699 19.1984C44.7443 18.9823 44.5388 18.825 44.2978 18.7605C44.059 18.696 43.8039 18.7306 43.5911 18.8566L7.56061 39.6627C7.11414 39.9203 6.54291 39.7674 6.28528 39.3209C6.02765 38.8744 6.1806 38.3036 6.62708 38.046L42.6538 17.2417C43.2955 16.8653 44.062 16.7627 44.7802 16.9575C45.4988 17.1485 46.1115 17.6176 46.4836 18.2611L53.0192 29.5771C53.3904 30.221 53.4896 30.9862 53.2956 31.7039C53.1016 32.4213 52.6299 33.0322 51.9848 33.4014L41.1417 39.6627C41.0003 39.7447 40.8397 39.7879 40.676 39.7874V39.7874Z" fill="#05000E"/>
<path d="M4.48563 39.7855C4.15195 39.7855 3.84433 39.6074 3.6777 39.3186C3.51108 39.0302 3.51108 38.6743 3.6777 38.3859L23.1845 4.59882C23.554 3.95496 24.1642 3.48457 24.8806 3.2906C25.5976 3.09663 26.3615 3.19575 27.0053 3.56532L38.3197 10.1005C38.9648 10.4726 39.4352 11.0861 39.627 11.806C39.8185 12.5259 39.7155 13.2924 39.3404 13.9359L33.0804 24.7777C32.9133 25.0665 32.6053 25.2446 32.272 25.2446C31.9383 25.2446 31.6303 25.0665 31.4632 24.7777C31.2966 24.4888 31.2966 24.1334 31.4632 23.8446L37.7258 12.9989C37.8531 12.7853 37.8886 12.5289 37.8245 12.2884C37.7591 12.0462 37.6002 11.8398 37.3827 11.7146L26.0744 5.1833C25.8599 5.06025 25.6053 5.02778 25.3669 5.09272C25.128 5.15766 24.9255 5.31489 24.8029 5.52937L5.29483 39.319C5.12778 39.6082 4.81931 39.786 4.48563 39.7855V39.7855Z" fill="#05000E"/>
<path d="M53.1998 56.5803H2.80017C1.25439 56.5786 0.00170898 55.3259 0 53.7801L0 40.7136C0.00170898 39.1678 1.25439 37.9152 2.80017 37.9135H53.1998C54.7456 37.9152 55.9983 39.1678 56 40.7136V53.7801C55.9983 55.3259 54.7456 56.5786 53.1998 56.5803V56.5803ZM2.80017 39.7801C2.28491 39.7809 1.86749 40.1984 1.86664 40.7136L1.86664 53.7801C1.86749 54.2953 2.28491 54.7128 2.80017 54.7136H53.1998C53.7151 54.7128 54.1325 54.2953 54.1334 53.7801V40.7136C54.1325 40.1984 53.7151 39.7809 53.1998 39.7801H2.80017Z" fill="#070110"/>
<path d="M9.33337 50.98C7.27148 50.98 5.6001 49.3086 5.6001 47.2467C5.6001 45.1848 7.27148 43.5134 9.33337 43.5134C11.3953 43.5134 13.0667 45.1848 13.0667 47.2467C13.0645 49.3073 11.3944 50.9774 9.33337 50.98ZM9.33337 45.3801C8.30243 45.3801 7.46674 46.2158 7.46674 47.2467C7.46674 48.2776 8.30243 49.1133 9.33337 49.1133C10.3643 49.1133 11.2 48.2776 11.2 47.2467C11.1992 46.2162 10.3639 45.3809 9.33337 45.3801Z" fill="#05000E"/>
<path d="M15.8608 56.5803C15.3456 56.5803 14.9277 56.1624 14.9277 55.6467V38.847C14.9277 38.3313 15.3456 37.9135 15.8608 37.9135C16.3765 37.9135 16.7944 38.3313 16.7944 38.847V55.6467C16.7944 56.1624 16.3765 56.5803 15.8608 56.5803Z" fill="#05000E"/>
<path d="M28.9335 56.5803C28.4178 56.5803 28 56.1624 28 55.6467V38.847C28 38.3313 28.4178 37.9135 28.9335 37.9135C29.4488 37.9135 29.8666 38.3313 29.8666 38.847V55.6467C29.8666 56.1624 29.4488 56.5803 28.9335 56.5803Z" fill="#05000E"/>
<path d="M42.0058 56.5803C41.4905 56.5803 41.0723 56.1624 41.0723 55.6467V38.847C41.0723 38.3313 41.4905 37.9135 42.0058 37.9135C42.5211 37.9135 42.9393 38.3313 42.9393 38.847V55.6467C42.9393 56.1624 42.5211 56.5803 42.0058 56.5803Z" fill="#05000E"/>
<path d="M27.1295 39.7847C26.7958 39.7851 26.4874 39.6074 26.3203 39.3186L21.3083 30.648C21.1344 30.3588 21.1301 29.9986 21.2972 29.7051C21.4638 29.412 21.7761 29.2317 22.1132 29.2334C22.4507 29.2351 22.7609 29.4193 22.9245 29.7141L27.9366 38.385C28.1032 38.6734 28.1032 39.0289 27.9366 39.3177C27.7704 39.6065 27.4628 39.7843 27.1295 39.7847V39.7847Z" fill="#05000E"/>
<path d="M41.832 39.1224C41.4983 39.1228 41.1898 38.9446 41.0228 38.6558L32.6227 24.106C32.3651 23.6595 32.518 23.0887 32.9645 22.8311C33.411 22.5734 33.9818 22.7264 34.2398 23.1729L42.6395 37.7223C42.8061 38.0111 42.8065 38.3666 42.6399 38.6554C42.4733 38.9442 42.1652 39.122 41.832 39.1224V39.1224Z" fill="#05000E"/>
<path d="M20.5502 32.0175C20.3866 32.0175 20.226 31.9743 20.0845 31.8927L11.4046 26.8807C10.9581 26.623 10.8048 26.0518 11.0628 25.6053C11.3204 25.1589 11.8912 25.0059 12.3377 25.2636L21.0176 30.2756C21.3838 30.4866 21.5624 30.9177 21.453 31.3262C21.3432 31.7342 20.9728 32.0179 20.5502 32.0175Z" fill="#05000E"/>
<path d="M32.9473 24.1004C32.7837 24.1004 32.623 24.0572 32.4816 23.9756L17.9318 15.5755C17.4853 15.3179 17.3323 14.7471 17.59 14.3006C17.848 13.8541 18.4188 13.7008 18.8653 13.9588L33.4147 22.3585C33.7809 22.57 33.9595 23.0006 33.8497 23.4091C33.7403 23.8175 33.3699 24.1008 32.9473 24.1004Z" fill="#05000E"/>
<path d="M10.9572 28.58H0.933533C0.417847 28.58 0 28.1622 0 27.6465C0 27.1312 0.417847 26.7134 0.933533 26.7134H10.9572C11.4728 26.7134 11.8907 27.1312 11.8907 27.6465C11.8907 28.1622 11.4728 28.58 10.9572 28.58Z" fill="#05000E"/>
<path d="M17.7333 15.5255H0.933533C0.417847 15.5255 0 15.1072 0 14.592C0 14.0767 0.417847 13.6584 0.933533 13.6584H17.7333C18.249 13.6584 18.6668 14.0767 18.6668 14.592C18.6668 15.1072 18.249 15.5255 17.7333 15.5255Z" fill="#05000E"/>
</g>
<defs>
<clipPath id="clip0_41_747">
<rect width="56" height="56" fill="white" transform="translate(0 0.585938)"/>
</clipPath>
</defs>
</svg>
