<svg width="476" height="466" viewBox="0 0 476 466" fill="none" xmlns="http://www.w3.org/2000/svg">
<path d="M109.134 466C73.845 466 46.8338 456.076 28.1003 436.228C9.36677 416.38 0 388.333 0 352.089V113.911C0 77.6667 9.36677 49.6204 28.1003 29.7722C46.8338 9.92407 73.845 0 109.134 0C144.423 0 171.434 9.92407 190.167 29.7722C208.901 49.6204 218.267 77.6667 218.267 113.911V352.089C218.267 388.333 208.901 416.38 190.167 436.228C171.434 456.076 144.423 466 109.134 466ZM109.134 401.278C133.967 401.278 146.383 386.392 146.383 356.619V109.381C146.383 79.6083 133.967 64.7222 109.134 64.7222C84.3009 64.7222 71.8845 79.6083 71.8845 109.381V356.619C71.8845 386.392 84.3009 401.278 109.134 401.278Z" fill="url(#paint0_linear_2322_4489)" fill-opacity="0.1"/>
<path d="M368.827 466C333.538 466 306.745 456.292 288.447 436.875C270.585 417.458 261.653 389.628 261.653 353.383V316.492H329.617V356.619C329.617 386.392 342.033 401.278 366.866 401.278C379.065 401.278 388.214 397.61 394.313 390.275C400.848 382.508 404.115 369.132 404.115 350.147V313.256C404.115 292.544 400.412 277.874 393.006 269.244C385.6 260.183 373.619 255.653 357.064 255.653H332.884V190.931H359.024C373.401 190.931 384.075 187.263 391.046 179.928C398.452 172.593 402.155 160.295 402.155 143.036V110.028C402.155 94.4944 398.888 83.0602 392.353 75.725C385.818 68.3898 377.104 64.7222 366.213 64.7222C343.123 64.7222 331.577 78.7454 331.577 106.792V136.564H263.614V112.617C263.614 76.3722 272.545 48.5417 290.407 29.125C308.705 9.70834 334.845 0 368.827 0C403.244 0 429.384 9.70834 447.246 29.125C465.108 48.1102 474.04 75.725 474.04 111.969V128.15C474.04 152.744 469.901 172.593 461.623 187.694C453.345 202.365 440.493 212.936 423.067 219.408V220.703C441.8 227.606 455.306 238.825 463.584 254.358C471.861 269.892 476 289.74 476 313.903V354.031C476 390.275 466.851 418.106 448.553 437.522C430.691 456.507 404.115 466 368.827 466Z" fill="url(#paint1_linear_2322_4489)" fill-opacity="0.1"/>
<defs>
<linearGradient id="paint0_linear_2322_4489" x1="240.473" y1="-122.813" x2="240.473" y2="654.17" gradientUnits="userSpaceOnUse">
<stop/>
<stop offset="1" stop-opacity="0"/>
</linearGradient>
<linearGradient id="paint1_linear_2322_4489" x1="240.473" y1="-122.813" x2="240.473" y2="654.17" gradientUnits="userSpaceOnUse">
<stop/>
<stop offset="1" stop-opacity="0"/>
</linearGradient>
</defs>
</svg>
