<svg width="476" height="466" viewBox="0 0 476 466" fill="none" xmlns="http://www.w3.org/2000/svg">
<path d="M108.242 466C73.2417 466 46.4512 456.076 27.8707 436.228C9.29024 416.38 0 388.333 0 352.089V113.911C0 77.6667 9.29024 49.6204 27.8707 29.7722C46.4512 9.92407 73.2417 0 108.242 0C143.243 0 170.033 9.92407 188.614 29.7722C207.194 49.6204 216.484 77.6667 216.484 113.911V352.089C216.484 388.333 207.194 416.38 188.614 436.228C170.033 456.076 143.243 466 108.242 466ZM108.242 401.278C132.872 401.278 145.187 386.392 145.187 356.619V109.381C145.187 79.6083 132.872 64.7222 108.242 64.7222C83.6122 64.7222 71.2972 79.6083 71.2972 109.381V356.619C71.2972 386.392 83.6122 401.278 108.242 401.278Z" fill="url(#paint0_linear_2322_4434)" fill-opacity="0.1"/>
<path d="M263.405 410.339C263.405 377.978 268.59 350.363 278.96 327.494C289.331 304.194 307.911 278.521 334.702 250.475C361.06 222.429 379.209 198.481 389.147 178.633C399.518 158.785 404.703 138.074 404.703 116.5C404.703 97.0833 401.462 83.7074 394.98 76.3722C388.931 68.6056 379.857 64.7222 367.758 64.7222C343.128 64.7222 330.813 79.6083 330.813 109.381V157.922H263.405V113.911C263.405 77.2352 272.479 49.1889 290.627 29.7722C308.776 9.92407 335.134 0 369.702 0C404.271 0 430.629 9.92407 448.777 29.7722C466.926 49.1889 476 77.2352 476 113.911C476 141.526 469.302 168.494 455.907 194.814C442.944 221.134 420.259 251.338 387.851 285.425C366.678 307.862 352.418 326.2 345.072 340.439C337.727 354.246 334.054 369.132 334.054 385.097V394.806H469.518V459.528H263.405V410.339Z" fill="url(#paint1_linear_2322_4434)" fill-opacity="0.1"/>
<defs>
<linearGradient id="paint0_linear_2322_4434" x1="238.509" y1="-122.813" x2="238.509" y2="654.17" gradientUnits="userSpaceOnUse">
<stop/>
<stop offset="1" stop-color="#F8F8F8"/>
</linearGradient>
<linearGradient id="paint1_linear_2322_4434" x1="238.509" y1="-122.813" x2="238.509" y2="654.17" gradientUnits="userSpaceOnUse">
<stop/>
<stop offset="1" stop-color="#F8F8F8"/>
</linearGradient>
</defs>
</svg>
