<svg width="436" height="466" viewBox="0 0 436 466" fill="none" xmlns="http://www.w3.org/2000/svg">
<path d="M108.086 466C73.1361 466 46.3843 456.076 27.8306 436.228C9.27685 416.38 0 388.333 0 352.089V113.911C0 77.6667 9.27685 49.6204 27.8306 29.7722C46.3843 9.92408 73.1361 0 108.086 0C143.036 0 169.788 9.92408 188.342 29.7722C206.895 49.6204 216.172 77.6667 216.172 113.911V352.089C216.172 388.333 206.895 416.38 188.342 436.228C169.788 456.076 143.036 466 108.086 466ZM108.086 401.278C132.681 401.278 144.978 386.392 144.978 356.619V109.381C144.978 79.6083 132.681 64.7222 108.086 64.7222C83.4917 64.7222 71.1945 79.6083 71.1945 109.381V356.619C71.1945 386.392 83.4917 401.278 108.086 401.278Z" fill="url(#paint0_linear_2322_4362)" fill-opacity="0.1"/>
<path d="M363.992 113.911H289.561V63.4278C309.841 63.4278 326.021 61.7019 338.103 58.25C350.616 54.7982 360.54 49.1889 367.875 41.4222C375.21 33.2241 381.682 21.5741 387.292 6.47222H435.186V459.528H363.992V113.911Z" fill="url(#paint1_linear_2322_4362)" fill-opacity="0.1"/>
<defs>
<linearGradient id="paint0_linear_2322_4362" x1="238.165" y1="-122.813" x2="238.165" y2="654.17" gradientUnits="userSpaceOnUse">
<stop stop-color="#1F1F22"/>
<stop offset="1" stop-opacity="0"/>
</linearGradient>
<linearGradient id="paint1_linear_2322_4362" x1="238.165" y1="-122.813" x2="238.165" y2="654.17" gradientUnits="userSpaceOnUse">
<stop stop-color="#1F1F22"/>
<stop offset="1" stop-opacity="0"/>
</linearGradient>
</defs>
</svg>
