<svg width="476" height="466" viewBox="0 0 476 466" fill="none" xmlns="http://www.w3.org/2000/svg">
<path d="M108.39 466C73.3415 466 46.5145 456.076 27.9087 436.228C9.30291 416.38 0 388.333 0 352.089V113.911C0 77.6667 9.30291 49.6204 27.9087 29.7722C46.5145 9.92407 73.3415 0 108.39 0C143.438 0 170.265 9.92407 188.871 29.7722C207.477 49.6204 216.779 77.6667 216.779 113.911V352.089C216.779 388.333 207.477 416.38 188.871 436.228C170.265 456.076 143.438 466 108.39 466ZM108.39 401.278C133.053 401.278 145.385 386.392 145.385 356.619V109.381C145.385 79.6083 133.053 64.7222 108.39 64.7222C83.7262 64.7222 71.3944 79.6083 71.3944 109.381V356.619C71.3944 386.392 83.7262 401.278 108.39 401.278Z" fill="url(#paint0_linear_2322_4798)" fill-opacity="0.1"/>
<path d="M369.557 466C334.942 466 308.548 456.292 290.374 436.875C272.201 417.027 263.115 388.765 263.115 352.089V316.492H330.615V357.267C330.615 386.607 342.947 401.278 367.61 401.278C392.274 401.278 404.606 386.607 404.606 357.267V255.653C404.606 225.881 392.274 210.994 367.61 210.994C342.947 210.994 330.615 225.881 330.615 255.653V259.536H263.115L276.096 6.47222H464.317V71.1945H339.702L333.86 179.281H335.158C348.572 157.275 369.125 146.272 396.817 146.272C422.779 146.272 442.466 155.118 455.88 172.808C469.293 190.499 476 216.172 476 249.828V352.089C476 388.765 466.913 417.027 448.74 436.875C430.567 456.292 404.173 466 369.557 466Z" fill="url(#paint1_linear_2322_4798)" fill-opacity="0.1"/>
<defs>
<linearGradient id="paint0_linear_2322_4798" x1="238.834" y1="-122.813" x2="238.834" y2="654.17" gradientUnits="userSpaceOnUse">
<stop/>
<stop offset="1" stop-opacity="0"/>
</linearGradient>
<linearGradient id="paint1_linear_2322_4798" x1="238.834" y1="-122.813" x2="238.834" y2="654.17" gradientUnits="userSpaceOnUse">
<stop/>
<stop offset="1" stop-opacity="0"/>
</linearGradient>
</defs>
</svg>
