<svg width="476" height="466" viewBox="0 0 476 466" fill="none" xmlns="http://www.w3.org/2000/svg">
<path d="M105.372 466C71.2999 466 45.2197 456.076 27.1318 436.228C9.04394 416.38 0 388.333 0 352.089V113.911C0 77.6667 9.04394 49.6204 27.1318 29.7722C45.2197 9.92407 71.2999 0 105.372 0C139.445 0 165.525 9.92407 183.613 29.7722C201.701 49.6204 210.745 77.6667 210.745 113.911V352.089C210.745 388.333 201.701 416.38 183.613 436.228C165.525 456.076 139.445 466 105.372 466ZM105.372 401.278C129.349 401.278 141.338 386.392 141.338 356.619V109.381C141.338 79.6083 129.349 64.7222 105.372 64.7222C81.3955 64.7222 69.407 79.6083 69.407 109.381V356.619C69.407 386.392 81.3955 401.278 105.372 401.278Z" fill="url(#paint0_linear_2322_4522)" fill-opacity="0.1"/>
<path d="M373.782 377.331H241.278V312.608L367.473 6.47222H443.189V312.608H476V377.331H443.189V459.528H373.782V377.331ZM373.782 312.608V135.917H372.52L304.375 312.608H373.782Z" fill="url(#paint1_linear_2322_4522)" fill-opacity="0.1"/>
<defs>
<linearGradient id="paint0_linear_2322_4522" x1="232.186" y1="-122.813" x2="232.186" y2="654.17" gradientUnits="userSpaceOnUse">
<stop/>
<stop offset="1" stop-opacity="0"/>
</linearGradient>
<linearGradient id="paint1_linear_2322_4522" x1="232.186" y1="-122.813" x2="232.186" y2="654.17" gradientUnits="userSpaceOnUse">
<stop/>
<stop offset="1" stop-opacity="0"/>
</linearGradient>
</defs>
</svg>
