<svg width="1400" height="1300" viewBox="0 0 1400 1300" fill="none" xmlns="http://www.w3.org/2000/svg">
<path d="M818.802 284.597C997.123 332.152 1159.94 263.41 1127.21 590.493C1121.42 648.393 1108.38 727.477 1091.24 793.085C1077.35 846.233 1057.68 903.892 1028.98 952.759C981.566 1033.44 911.304 1087.1 803.38 1069.25C692.944 1050.97 642.288 948.421 593.747 954.395C443.527 972.829 358.762 882.317 356.118 733.988C352.81 546.28 521.294 501.883 518.884 425.146C514.984 300.768 637.26 236.184 818.802 284.597Z" fill="#FAF8FC"/>
<path d="M643.628 613.681C656.8 615.036 670.072 616.371 683.224 614.975C696.138 613.599 708.656 609.636 721.431 607.274C738.591 604.111 756.247 603.927 773.486 606.699C788.939 609.184 804.214 614.071 819.846 613.64C835.479 613.209 852.341 605.96 858.59 591.112C859.363 589.285 859.958 587.293 859.76 585.321C859.204 579.592 852.837 576.82 847.461 575.32C785.249 557.865 720.321 551.766 656.026 555.031C625.754 556.571 595.482 560.781 565.467 563.636C553.069 564.806 513.393 588.217 535.453 602.386C541.027 605.98 555.092 604.645 561.619 605.303C570.724 606.227 579.83 607.171 588.955 608.095C607.186 609.964 625.417 611.833 643.628 613.681Z" fill="url(#paint0_linear_60_1113)"/>
<path d="M776.259 487.508C797.393 487.508 814.526 469.773 814.526 447.895C814.526 426.017 797.393 408.281 776.259 408.281C755.125 408.281 737.992 426.017 737.992 447.895C737.992 469.773 755.125 487.508 776.259 487.508Z" fill="url(#paint1_linear_60_1113)"/>
<path d="M776.259 486.174C796.681 486.174 813.236 469.036 813.236 447.896C813.236 426.755 796.681 409.617 776.259 409.617C755.837 409.617 739.281 426.755 739.281 447.896C739.281 469.036 755.837 486.174 776.259 486.174Z" fill="url(#paint2_linear_60_1113)"/>
<path d="M745.766 433.23C745.587 433.23 745.409 433.189 745.23 433.107C744.655 432.799 744.417 432.059 744.715 431.464C750.765 419.06 762.846 411.359 776.276 411.359C778.419 411.359 780.561 411.565 782.644 411.955C783.279 412.078 783.716 412.715 783.596 413.372C783.477 414.029 782.862 414.481 782.228 414.358C780.284 413.988 778.28 413.803 776.276 413.803C763.759 413.803 752.471 420.991 746.837 432.573C746.619 432.983 746.183 433.23 745.766 433.23Z" fill="#F3D7B3"/>
<path opacity="0.78" d="M777.07 481.139C794.358 481.139 808.373 466.63 808.373 448.733C808.373 430.836 794.358 416.328 777.07 416.328C759.781 416.328 745.766 430.836 745.766 448.733C745.766 466.63 759.781 481.139 777.07 481.139Z" fill="#FBEBD6"/>
<path d="M692.724 495.069L637.04 644.466L569.75 617.585L625.434 468.188L692.724 495.069Z" fill="url(#paint3_linear_60_1113)"/>
<path opacity="0.5" d="M636.543 482.109L675.048 497.491C673.858 500.694 675.683 504.534 679.115 505.89C679.214 505.931 679.492 506.033 679.492 506.033L634.54 626.619C634.54 626.619 634.282 626.496 634.182 626.455C630.751 625.079 626.981 626.558 625.751 629.823C625.732 629.864 625.692 629.925 625.692 629.925L588.06 614.893C590.103 609.39 586.77 607.48 583.338 606.104C583.239 606.063 583.2 606.104 583.18 606.104L628.132 485.518C628.132 485.518 628.152 485.539 628.251 485.58C631.683 486.956 635.353 485.313 636.543 482.109Z" fill="#50219E"/>
<path d="M631.085 579.673C643.619 579.673 653.779 569.155 653.779 556.18C653.779 543.206 643.619 532.688 631.085 532.688C618.551 532.688 608.391 543.206 608.391 556.18C608.391 569.155 618.551 579.673 631.085 579.673Z" fill="url(#paint4_linear_60_1113)"/>
<path d="M644.536 564.089L642.294 563.186C641.302 565.568 639.854 567.724 638.505 569.141C638.029 569.654 637.255 569.695 636.7 569.264L634.835 567.847C634.161 567.334 634.081 566.307 634.657 565.67C635.966 564.254 637.275 562.405 638.108 560.146C638.981 557.826 638.862 555.772 637.295 555.156C635.887 554.602 634.557 555.608 632.514 558.504C629.578 562.631 626.404 565.157 622.476 563.596C618.925 562.179 617.219 558.421 618.231 553.472L615.989 552.569C615.275 552.281 614.918 551.439 615.196 550.7L615.712 549.345C615.989 548.605 616.803 548.236 617.517 548.523L619.52 549.324C620.433 547.127 621.425 545.648 622.337 544.519C622.814 543.944 623.627 543.862 624.222 544.313L625.948 545.628C626.622 546.141 626.722 547.127 626.166 547.763C625.293 548.77 624.202 550.269 623.389 552.466C622.357 555.218 623.171 556.45 624.162 556.861C625.373 557.354 626.841 556.019 629.241 552.856C632.633 548.318 635.49 547.024 639.18 548.482C642.572 549.837 644.655 553.657 643.524 559.017L646.024 560.023C646.738 560.311 647.095 561.153 646.817 561.892L646.301 563.247C646.063 564.007 645.25 564.377 644.536 564.089Z" fill="#50219E"/>
<path d="M588.022 620.889C587.962 620.889 587.903 620.889 587.863 620.848L575.246 615.817C575.008 615.714 574.889 615.447 574.988 615.201L588.736 578.319C588.835 578.072 589.093 577.949 589.331 578.052C589.569 578.155 589.688 578.422 589.589 578.668L576 615.119L588.18 619.986C588.418 620.089 588.537 620.356 588.438 620.602C588.379 620.766 588.22 620.889 588.022 620.889Z" fill="#50219E"/>
<path d="M673.756 534.826C673.697 534.826 673.637 534.826 673.598 534.785C673.36 534.682 673.241 534.415 673.34 534.169L686.75 498.19L673.677 492.974C673.439 492.871 673.32 492.604 673.419 492.358C673.518 492.112 673.776 491.988 674.014 492.091L687.524 497.492C687.643 497.533 687.722 497.636 687.782 497.738C687.821 497.862 687.841 497.985 687.782 498.108L674.213 534.538C674.113 534.703 673.935 534.826 673.756 534.826Z" fill="#50219E"/>
<path d="M606.703 519.671C640.229 519.671 667.407 491.537 667.407 456.831C667.407 422.126 640.229 393.992 606.703 393.992C573.178 393.992 546 422.126 546 456.831C546 491.537 573.178 519.671 606.703 519.671Z" fill="url(#paint5_linear_60_1113)"/>
<path d="M606.703 517.575C639.111 517.575 665.383 490.379 665.383 456.831C665.383 423.282 639.111 396.086 606.703 396.086C574.295 396.086 548.023 423.282 548.023 456.831C548.023 490.379 574.295 517.575 606.703 517.575Z" fill="url(#paint6_linear_60_1113)"/>
<path d="M558.554 432.186C558.395 432.186 558.217 432.145 558.058 432.062C557.522 431.775 557.304 431.097 557.582 430.543C567.243 411.239 586.307 399.39 607.295 399.637C610.648 399.678 614 400.027 617.254 400.684C617.849 400.807 618.246 401.403 618.127 402.019C618.008 402.635 617.432 403.046 616.837 402.922C613.703 402.286 610.489 401.957 607.275 401.916C587.12 401.69 568.83 413.067 559.546 431.59C559.347 431.96 558.951 432.186 558.554 432.186Z" fill="#EDD3B4"/>
<path opacity="0.78" d="M657.611 458.763C657.913 430.367 635.921 407.093 608.489 406.781C581.058 406.468 558.576 429.234 558.274 457.631C557.971 486.027 579.964 509.3 607.395 509.613C634.827 509.926 657.309 487.16 657.611 458.763Z" fill="#F9E7CF"/>
<path d="M596.64 452.231C596.64 454.499 595.38 455.975 592.572 455.975H588.36V448.595H592.572C595.38 448.595 596.64 449.999 596.64 452.231ZM583.32 444.419V469.547H588.36V459.755H590.736L596.28 469.547H602.112L596.1 459.359C600.132 458.279 601.824 455.183 601.824 452.123C601.824 447.911 598.8 444.419 592.752 444.419H583.32ZM606.382 469.547H611.422V453.203L618.19 469.547H622.006L628.738 453.203V469.547H633.778V444.419H628.09L620.098 463.103L612.106 444.419H606.382V469.547Z" fill="#D69644"/>
<path d="M689.731 488.09L634.046 637.466L566.32 610.421L622.005 461.023L689.731 488.09Z" fill="url(#paint7_linear_60_1113)"/>
<path opacity="0.5" d="M633.256 474.984L671.761 490.366C670.571 493.569 672.554 497.45 675.986 498.806C676.086 498.847 676.086 498.806 676.522 498.991L631.57 619.576C631.133 619.392 631.153 619.392 631.054 619.35C627.622 617.975 623.754 619.453 622.544 622.718C622.524 622.759 622.405 622.8 622.405 622.8L584.773 607.768C586.816 602.265 583.424 600.293 579.992 598.938C579.892 598.897 579.793 598.897 579.773 598.897L624.726 478.311C624.726 478.311 624.805 478.373 624.904 478.414C628.336 479.79 632.066 478.208 633.256 474.984Z" fill="#279883"/>
<path d="M627.796 572.533C640.33 572.533 650.49 562.014 650.49 549.04C650.49 536.065 640.33 525.547 627.796 525.547C615.262 525.547 605.102 536.065 605.102 549.04C605.102 562.014 615.262 572.533 627.796 572.533Z" fill="url(#paint8_linear_60_1113)"/>
<path d="M641.247 556.949L639.005 556.045C638.013 558.427 636.565 560.583 635.216 562C634.74 562.514 633.966 562.555 633.411 562.124L631.546 560.707C630.872 560.193 630.792 559.166 631.368 558.53C632.677 557.113 633.986 555.265 634.819 553.006C635.692 550.685 635.573 548.632 634.006 548.016C632.598 547.461 631.268 548.467 629.225 551.363C626.289 555.491 623.115 558.016 619.187 556.456C615.636 555.039 613.93 551.281 614.942 546.332L612.7 545.428C611.986 545.141 611.629 544.299 611.907 543.559L612.423 542.204C612.7 541.465 613.514 541.095 614.228 541.383L616.231 542.183C617.144 539.986 618.136 538.508 619.048 537.378C619.524 536.803 620.338 536.721 620.933 537.173L622.659 538.487C623.333 539 623.432 539.986 622.877 540.623C622.004 541.629 620.913 543.128 620.1 545.325C619.068 548.077 619.882 549.309 620.873 549.72C622.084 550.213 623.552 548.878 625.952 545.716C629.344 541.177 632.201 539.883 635.891 541.341C639.283 542.697 641.366 546.516 640.235 551.876L642.735 552.883C643.449 553.17 643.806 554.012 643.528 554.751L643.012 556.107C642.774 556.866 641.981 557.236 641.247 556.949Z" fill="#50219E"/>
<path d="M585.203 613.443C585.143 613.443 585.084 613.443 585.044 613.402L571.991 608.186C571.872 608.145 571.792 608.042 571.733 607.939C571.693 607.816 571.673 607.693 571.733 607.57L585.302 571.139C585.401 570.893 585.659 570.77 585.897 570.872C586.135 570.975 586.254 571.242 586.155 571.488L572.745 607.467L585.381 612.519C585.619 612.621 585.738 612.888 585.639 613.135C585.56 613.32 585.401 613.443 585.203 613.443Z" fill="#50219E"/>
<path d="M670.327 527.662C670.267 527.662 670.208 527.662 670.168 527.62C669.93 527.518 669.811 527.251 669.91 527.004L683.32 491.026L670.684 485.974C670.446 485.871 670.327 485.604 670.426 485.358C670.525 485.112 670.783 484.988 671.021 485.091L684.074 490.307C684.193 490.348 684.273 490.451 684.332 490.554C684.372 490.677 684.392 490.8 684.332 490.923L670.763 527.354C670.684 527.538 670.505 527.662 670.327 527.662Z" fill="#50219E"/>
<path d="M691.703 658.679C725.229 658.679 752.407 630.544 752.407 595.839C752.407 561.134 725.229 533 691.703 533C658.178 533 631 561.134 631 595.839C631 630.544 658.178 658.679 691.703 658.679Z" fill="url(#paint9_linear_60_1113)"/>
<path d="M691.703 656.583C724.111 656.583 750.383 629.387 750.383 595.838C750.383 562.29 724.111 535.094 691.703 535.094C659.295 535.094 633.023 562.29 633.023 595.838C633.023 629.387 659.295 656.583 691.703 656.583Z" fill="url(#paint10_linear_60_1113)"/>
<path d="M643.554 571.194C643.395 571.194 643.217 571.152 643.058 571.07C642.522 570.783 642.304 570.105 642.582 569.551C652.243 550.247 671.307 538.398 692.295 538.644C695.648 538.685 699 539.035 702.254 539.692C702.849 539.815 703.246 540.41 703.127 541.027C703.008 541.643 702.432 542.053 701.837 541.93C698.703 541.294 695.489 540.965 692.275 540.924C672.12 540.698 653.83 552.075 644.546 570.598C644.347 570.968 643.951 571.194 643.554 571.194Z" fill="#EDD3B4"/>
<path opacity="0.78" d="M742.611 597.771C742.913 569.374 720.921 546.101 693.489 545.788C666.058 545.476 643.576 568.242 643.274 596.638C642.971 625.035 664.964 648.308 692.395 648.621C719.827 648.934 742.309 626.167 742.611 597.771Z" fill="#F9E7CF"/>
<path d="M681.64 591.239C681.64 593.507 680.38 594.983 677.572 594.983H673.36V587.603H677.572C680.38 587.603 681.64 589.007 681.64 591.239ZM668.32 583.427V608.555H673.36V598.763H675.736L681.28 608.555H687.112L681.1 598.367C685.132 597.287 686.824 594.191 686.824 591.131C686.824 586.919 683.8 583.427 677.752 583.427H668.32ZM691.382 608.555H696.422V592.211L703.19 608.555H707.006L713.738 592.211V608.555H718.778V583.427H713.09L705.098 602.111L697.106 583.427H691.382V608.555Z" fill="#D69644"/>
<path d="M704.408 503.221L607.798 628.283L551.102 581.339L647.691 456.297L704.408 503.221Z" fill="url(#paint11_linear_60_1113)"/>
<path opacity="0.5" d="M654.393 473.156L686.629 499.832C684.546 502.522 685.28 506.835 688.157 509.217C688.256 509.299 688.196 509.258 688.573 509.566L610.591 610.499C610.234 610.191 610.274 610.232 610.194 610.15C607.318 607.768 603.251 607.953 601.148 610.684C601.109 610.725 601.029 610.704 601.029 610.704L569.527 584.624C573.078 580.024 570.38 577.087 567.504 574.705C567.404 574.623 567.266 574.603 567.266 574.603L645.248 473.649C645.248 473.649 645.347 473.731 645.446 473.813C648.263 476.196 652.33 475.846 654.393 473.156Z" fill="#48DAB5"/>
<path d="M627.593 565.611C640.127 565.611 650.287 555.093 650.287 542.118C650.287 529.143 640.127 518.625 627.593 518.625C615.059 518.625 604.898 529.143 604.898 542.118C604.898 555.093 615.059 565.611 627.593 565.611Z" fill="url(#paint12_linear_60_1113)"/>
<path d="M568.065 590.515C567.966 590.515 567.867 590.474 567.788 590.413L556.857 581.356C556.659 581.192 556.619 580.884 556.778 580.679L580.623 549.793C580.781 549.588 581.079 549.546 581.277 549.711C581.476 549.875 581.515 550.183 581.357 550.388L557.789 580.925L568.363 589.673C568.561 589.838 568.601 590.146 568.442 590.351C568.343 590.454 568.204 590.515 568.065 590.515Z" fill="#002A27"/>
<path d="M674.51 534.93C674.41 534.93 674.311 534.889 674.232 534.827C674.034 534.663 673.994 534.355 674.153 534.149L697.422 504.023L686.849 495.275C686.65 495.111 686.611 494.803 686.769 494.598C686.928 494.392 687.226 494.351 687.424 494.515L698.355 503.572C698.553 503.736 698.593 504.044 698.434 504.249L674.867 534.745C674.768 534.868 674.629 534.93 674.51 534.93Z" fill="#002A27"/>
<path d="M600.302 587.581C603.852 587.581 606.73 584.602 606.73 580.927C606.73 577.252 603.852 574.273 600.302 574.273C596.753 574.273 593.875 577.252 593.875 580.927C593.875 584.602 596.753 587.581 600.302 587.581Z" fill="url(#paint13_linear_60_1113)"/>
<path d="M660.685 509.401C664.235 509.401 667.113 506.422 667.113 502.747C667.113 499.073 664.235 496.094 660.685 496.094C657.135 496.094 654.258 499.073 654.258 502.747C654.258 506.422 657.135 509.401 660.685 509.401Z" fill="url(#paint14_linear_60_1113)"/>
<path d="M612.046 619.981C612.046 622.249 610.786 623.725 607.978 623.725H603.766V616.345H607.978C610.786 616.345 612.046 617.749 612.046 619.981ZM598.726 612.169V637.297H603.766V627.505H606.142L611.686 637.297H617.518L611.506 627.109C615.538 626.029 617.23 622.933 617.23 619.873C617.23 615.661 614.206 612.169 608.158 612.169H598.726ZM621.789 637.297H626.829V620.953L633.597 637.297H637.413L644.145 620.953V637.297H649.185V612.169H643.497L635.505 630.853L627.513 612.169H621.789V637.297Z" fill="#2A0E59"/>
<path d="M787.703 615.679C821.229 615.679 848.407 587.544 848.407 552.839C848.407 518.134 821.229 490 787.703 490C754.178 490 727 518.134 727 552.839C727 587.544 754.178 615.679 787.703 615.679Z" fill="url(#paint15_linear_60_1113)"/>
<path d="M787.703 613.583C820.111 613.583 846.383 586.387 846.383 552.838C846.383 519.29 820.111 492.094 787.703 492.094C755.295 492.094 729.023 519.29 729.023 552.838C729.023 586.387 755.295 613.583 787.703 613.583Z" fill="url(#paint16_linear_60_1113)"/>
<path d="M739.554 528.194C739.395 528.194 739.217 528.152 739.058 528.07C738.522 527.783 738.304 527.105 738.582 526.551C748.243 507.247 767.307 495.398 788.295 495.644C791.648 495.685 795 496.035 798.254 496.692C798.849 496.815 799.246 497.41 799.127 498.027C799.008 498.643 798.432 499.053 797.837 498.93C794.703 498.294 791.489 497.965 788.275 497.924C768.12 497.698 749.83 509.075 740.546 527.598C740.347 527.968 739.951 528.194 739.554 528.194Z" fill="#EDD3B4"/>
<path opacity="0.78" d="M838.611 554.771C838.913 526.374 816.921 503.101 789.489 502.788C762.058 502.476 739.576 525.242 739.274 553.638C738.971 582.035 760.964 605.308 788.395 605.621C815.827 605.934 838.309 583.167 838.611 554.771Z" fill="#F9E7CF"/>
<path d="M777.64 548.239C777.64 550.507 776.38 551.983 773.572 551.983H769.36V544.603H773.572C776.38 544.603 777.64 546.007 777.64 548.239ZM764.32 540.427V565.555H769.36V555.763H771.736L777.28 565.555H783.112L777.1 555.367C781.132 554.287 782.824 551.191 782.824 548.131C782.824 543.919 779.8 540.427 773.752 540.427H764.32ZM787.382 565.555H792.422V549.211L799.19 565.555H803.006L809.738 549.211V565.555H814.778V540.427H809.09L801.098 559.111L793.106 540.427H787.382V565.555Z" fill="#D69644"/>
<path d="M866.127 908.88C883.683 884.997 867.258 737.818 858.767 710.772C851.467 687.505 836.668 675.122 843.135 649.514C847.023 634.092 850.574 618.526 854.819 603.186C856.03 598.853 859.501 594.54 860.315 590.248C860.969 586.737 857.914 582.404 858.37 580.062C854.879 597.744 830.617 601.317 816.652 601.707C797.826 602.241 779.357 597.169 760.888 594.232C741.586 591.152 721.808 591.357 702.565 594.807C692.983 596.532 683.541 599.038 673.88 600.167C655.708 602.303 634.561 600.311 616.311 598.791C600.639 597.477 585.145 594.355 569.434 593.308C559.932 592.671 550.271 593.904 540.828 592.302C538.051 591.829 531.465 588.421 529.025 590.412C525.474 593.308 530.274 599.366 532.734 601.194C540.213 606.779 547.454 606.307 553.782 614.46C559.138 621.36 561.201 630.334 559.753 639.021C557.869 650.336 551.679 658.776 546.204 668.346C541.344 676.827 539.003 685.226 536.523 694.878C531.227 715.639 527.318 736.791 524.581 758.066C518.788 802.978 517.995 848.649 522.081 893.746C509.881 974.143 813.954 979.852 866.127 908.88Z" fill="url(#paint17_linear_60_1113)"/>
<path d="M556.754 619.164C607.797 657.648 689.667 676.459 843.132 649.516C851.444 653.253 847.655 658.88 841.664 664.856C665.961 683.42 593.97 660.544 560.027 630.52C557.786 627.378 553.302 626.413 556.754 619.164Z" fill="url(#paint18_linear_60_1113)"/>
<path d="M621.153 544.423C621.928 545.067 622.075 545.917 621.277 546.877L620.08 548.316L617.557 546.221L618.754 544.781C619.552 543.822 620.39 543.79 621.153 544.423ZM614.697 546.757L623.289 553.892L624.721 552.17L621.373 549.389L622.048 548.577L626.971 549.463L628.628 547.47L623.437 546.632C624.213 544.947 623.635 543.49 622.589 542.621C621.149 541.425 619.096 541.467 617.377 543.534L614.697 546.757ZM629.842 546.011L631.274 544.288L625.686 539.647L633.197 541.975L634.281 540.671L630.606 533.73L636.194 538.37L637.626 536.648L629.035 529.513L627.418 531.457L631.536 539.493L622.877 536.919L621.25 538.876L629.842 546.011Z" fill="#002B27"/>
<path d="M771.29 445.218C771.29 446.226 770.73 446.882 769.482 446.882H767.61V443.602H769.482C770.73 443.602 771.29 444.226 771.29 445.218ZM765.37 441.746V452.914H767.61V448.562H768.666L771.13 452.914H773.722L771.05 448.386C772.842 447.906 773.594 446.53 773.594 445.17C773.594 443.298 772.25 441.746 769.562 441.746H765.37ZM775.62 452.914H777.86V445.65L780.868 452.914H782.564L785.556 445.65V452.914H787.796V441.746H785.268L781.716 450.05L778.164 441.746H775.62V452.914Z" fill="#D69644"/>
<path d="M643.628 613.681C656.8 615.036 670.072 616.371 683.224 614.975C696.138 613.599 708.656 609.636 721.431 607.274C738.591 604.111 756.247 603.927 773.486 606.699C788.939 609.184 804.214 614.071 819.846 613.64C835.479 613.209 852.341 605.96 858.59 591.112C859.363 589.285 859.958 587.293 859.76 585.321C859.204 579.592 852.837 576.82 847.461 575.32C785.249 557.865 720.321 551.766 656.026 555.031C625.754 556.571 595.482 560.781 565.467 563.636C553.069 564.806 513.393 588.217 535.453 602.386C541.027 605.98 555.092 604.645 561.619 605.303C570.724 606.227 579.83 607.171 588.955 608.095C607.186 609.964 625.417 611.833 643.628 613.681Z" fill="url(#paint19_linear_60_1113)"/>
<path d="M776.259 487.508C797.393 487.508 814.526 469.773 814.526 447.895C814.526 426.017 797.393 408.281 776.259 408.281C755.125 408.281 737.992 426.017 737.992 447.895C737.992 469.773 755.125 487.508 776.259 487.508Z" fill="url(#paint20_linear_60_1113)"/>
<path d="M776.259 486.174C796.681 486.174 813.236 469.036 813.236 447.896C813.236 426.755 796.681 409.617 776.259 409.617C755.837 409.617 739.281 426.755 739.281 447.896C739.281 469.036 755.837 486.174 776.259 486.174Z" fill="url(#paint21_linear_60_1113)"/>
<path d="M745.766 433.23C745.587 433.23 745.409 433.189 745.23 433.107C744.655 432.799 744.417 432.059 744.715 431.464C750.765 419.06 762.846 411.359 776.276 411.359C778.419 411.359 780.561 411.565 782.644 411.955C783.279 412.078 783.716 412.715 783.596 413.372C783.477 414.029 782.862 414.481 782.228 414.358C780.284 413.988 778.28 413.803 776.276 413.803C763.759 413.803 752.471 420.991 746.837 432.573C746.619 432.983 746.183 433.23 745.766 433.23Z" fill="#F3D7B3"/>
<path opacity="0.78" d="M777.07 481.139C794.358 481.139 808.373 466.63 808.373 448.733C808.373 430.836 794.358 416.328 777.07 416.328C759.781 416.328 745.766 430.836 745.766 448.733C745.766 466.63 759.781 481.139 777.07 481.139Z" fill="#FBEBD6"/>
<path d="M692.724 495.069L637.04 644.466L569.75 617.585L625.434 468.188L692.724 495.069Z" fill="url(#paint22_linear_60_1113)"/>
<path opacity="0.5" d="M636.543 482.109L675.048 497.491C673.858 500.694 675.683 504.534 679.115 505.89C679.214 505.931 679.492 506.033 679.492 506.033L634.54 626.619C634.54 626.619 634.282 626.496 634.182 626.455C630.751 625.079 626.981 626.558 625.751 629.823C625.732 629.864 625.692 629.925 625.692 629.925L588.06 614.893C590.103 609.39 586.77 607.48 583.338 606.104C583.239 606.063 583.2 606.104 583.18 606.104L628.132 485.518C628.132 485.518 628.152 485.539 628.251 485.58C631.683 486.956 635.353 485.313 636.543 482.109Z" fill="#50219E"/>
<path d="M631.085 579.673C643.619 579.673 653.779 569.155 653.779 556.18C653.779 543.206 643.619 532.688 631.085 532.688C618.551 532.688 608.391 543.206 608.391 556.18C608.391 569.155 618.551 579.673 631.085 579.673Z" fill="url(#paint23_linear_60_1113)"/>
<path d="M644.536 564.089L642.294 563.186C641.302 565.568 639.854 567.724 638.505 569.141C638.029 569.654 637.255 569.695 636.7 569.264L634.835 567.847C634.161 567.334 634.081 566.307 634.657 565.67C635.966 564.254 637.275 562.405 638.108 560.146C638.981 557.826 638.862 555.772 637.295 555.156C635.887 554.602 634.557 555.608 632.514 558.504C629.578 562.631 626.404 565.157 622.476 563.596C618.925 562.179 617.219 558.421 618.231 553.472L615.989 552.569C615.275 552.281 614.918 551.439 615.196 550.7L615.712 549.345C615.989 548.605 616.803 548.236 617.517 548.523L619.52 549.324C620.433 547.127 621.425 545.648 622.337 544.519C622.814 543.944 623.627 543.862 624.222 544.313L625.948 545.628C626.622 546.141 626.722 547.127 626.166 547.763C625.293 548.77 624.202 550.269 623.389 552.466C622.357 555.218 623.171 556.45 624.162 556.861C625.373 557.354 626.841 556.019 629.241 552.856C632.633 548.318 635.49 547.024 639.18 548.482C642.572 549.837 644.655 553.657 643.524 559.017L646.024 560.023C646.738 560.311 647.095 561.153 646.817 561.892L646.301 563.247C646.063 564.007 645.25 564.377 644.536 564.089Z" fill="#50219E"/>
<path d="M588.022 620.889C587.962 620.889 587.903 620.889 587.863 620.848L575.246 615.817C575.008 615.714 574.889 615.447 574.988 615.201L588.736 578.319C588.835 578.072 589.093 577.949 589.331 578.052C589.569 578.155 589.688 578.422 589.589 578.668L576 615.119L588.18 619.986C588.418 620.089 588.537 620.356 588.438 620.602C588.379 620.766 588.22 620.889 588.022 620.889Z" fill="#50219E"/>
<path d="M673.756 534.826C673.697 534.826 673.637 534.826 673.598 534.785C673.36 534.682 673.241 534.415 673.34 534.169L686.75 498.19L673.677 492.974C673.439 492.871 673.32 492.604 673.419 492.358C673.518 492.112 673.776 491.988 674.014 492.091L687.524 497.492C687.643 497.533 687.722 497.636 687.782 497.738C687.821 497.862 687.841 497.985 687.782 498.108L674.213 534.538C674.113 534.703 673.935 534.826 673.756 534.826Z" fill="#50219E"/>
<path d="M606.703 519.671C640.229 519.671 667.407 491.537 667.407 456.831C667.407 422.126 640.229 393.992 606.703 393.992C573.178 393.992 546 422.126 546 456.831C546 491.537 573.178 519.671 606.703 519.671Z" fill="url(#paint24_linear_60_1113)"/>
<path d="M606.703 517.575C639.111 517.575 665.383 490.379 665.383 456.831C665.383 423.282 639.111 396.086 606.703 396.086C574.295 396.086 548.023 423.282 548.023 456.831C548.023 490.379 574.295 517.575 606.703 517.575Z" fill="url(#paint25_linear_60_1113)"/>
<path d="M558.554 432.186C558.395 432.186 558.217 432.145 558.058 432.062C557.522 431.775 557.304 431.097 557.582 430.543C567.243 411.239 586.307 399.39 607.295 399.637C610.648 399.678 614 400.027 617.254 400.684C617.849 400.807 618.246 401.403 618.127 402.019C618.008 402.635 617.432 403.046 616.837 402.922C613.703 402.286 610.489 401.957 607.275 401.916C587.12 401.69 568.83 413.067 559.546 431.59C559.347 431.96 558.951 432.186 558.554 432.186Z" fill="#EDD3B4"/>
<path opacity="0.78" d="M657.611 458.763C657.913 430.367 635.921 407.093 608.489 406.781C581.058 406.468 558.576 429.234 558.274 457.631C557.971 486.027 579.964 509.3 607.395 509.613C634.827 509.926 657.309 487.16 657.611 458.763Z" fill="#F9E7CF"/>
<path d="M596.64 452.231C596.64 454.499 595.38 455.975 592.572 455.975H588.36V448.595H592.572C595.38 448.595 596.64 449.999 596.64 452.231ZM583.32 444.419V469.547H588.36V459.755H590.736L596.28 469.547H602.112L596.1 459.359C600.132 458.279 601.824 455.183 601.824 452.123C601.824 447.911 598.8 444.419 592.752 444.419H583.32ZM606.382 469.547H611.422V453.203L618.19 469.547H622.006L628.738 453.203V469.547H633.778V444.419H628.09L620.098 463.103L612.106 444.419H606.382V469.547Z" fill="#D69644"/>
<path d="M689.731 488.09L634.046 637.466L566.32 610.421L622.005 461.023L689.731 488.09Z" fill="url(#paint26_linear_60_1113)"/>
<path opacity="0.5" d="M633.256 474.984L671.761 490.366C670.571 493.569 672.554 497.45 675.986 498.806C676.086 498.847 676.086 498.806 676.522 498.991L631.57 619.576C631.133 619.392 631.153 619.392 631.054 619.35C627.622 617.975 623.754 619.453 622.544 622.718C622.524 622.759 622.405 622.8 622.405 622.8L584.773 607.768C586.816 602.265 583.424 600.293 579.992 598.938C579.892 598.897 579.793 598.897 579.773 598.897L624.726 478.311C624.726 478.311 624.805 478.373 624.904 478.414C628.336 479.79 632.066 478.208 633.256 474.984Z" fill="#279883"/>
<path d="M627.796 572.533C640.33 572.533 650.49 562.014 650.49 549.04C650.49 536.065 640.33 525.547 627.796 525.547C615.262 525.547 605.102 536.065 605.102 549.04C605.102 562.014 615.262 572.533 627.796 572.533Z" fill="url(#paint27_linear_60_1113)"/>
<path d="M641.247 556.949L639.005 556.045C638.013 558.427 636.565 560.583 635.216 562C634.74 562.514 633.966 562.555 633.411 562.124L631.546 560.707C630.872 560.193 630.792 559.166 631.368 558.53C632.677 557.113 633.986 555.265 634.819 553.006C635.692 550.685 635.573 548.632 634.006 548.016C632.598 547.461 631.268 548.467 629.225 551.363C626.289 555.491 623.115 558.016 619.187 556.456C615.636 555.039 613.93 551.281 614.942 546.332L612.7 545.428C611.986 545.141 611.629 544.299 611.907 543.559L612.423 542.204C612.7 541.465 613.514 541.095 614.228 541.383L616.231 542.183C617.144 539.986 618.136 538.508 619.048 537.378C619.524 536.803 620.338 536.721 620.933 537.173L622.659 538.487C623.333 539 623.432 539.986 622.877 540.623C622.004 541.629 620.913 543.128 620.1 545.325C619.068 548.077 619.882 549.309 620.873 549.72C622.084 550.213 623.552 548.878 625.952 545.716C629.344 541.177 632.201 539.883 635.891 541.341C639.283 542.697 641.366 546.516 640.235 551.876L642.735 552.883C643.449 553.17 643.806 554.012 643.528 554.751L643.012 556.107C642.774 556.866 641.981 557.236 641.247 556.949Z" fill="#50219E"/>
<path d="M585.203 613.443C585.143 613.443 585.084 613.443 585.044 613.402L571.991 608.186C571.872 608.145 571.792 608.042 571.733 607.939C571.693 607.816 571.673 607.693 571.733 607.57L585.302 571.139C585.401 570.893 585.659 570.77 585.897 570.872C586.135 570.975 586.254 571.242 586.155 571.488L572.745 607.467L585.381 612.519C585.619 612.621 585.738 612.888 585.639 613.135C585.56 613.32 585.401 613.443 585.203 613.443Z" fill="#50219E"/>
<path d="M670.327 527.662C670.267 527.662 670.208 527.662 670.168 527.62C669.93 527.518 669.811 527.251 669.91 527.004L683.32 491.026L670.684 485.974C670.446 485.871 670.327 485.604 670.426 485.358C670.525 485.112 670.783 484.988 671.021 485.091L684.074 490.307C684.193 490.348 684.273 490.451 684.332 490.554C684.372 490.677 684.392 490.8 684.332 490.923L670.763 527.354C670.684 527.538 670.505 527.662 670.327 527.662Z" fill="#50219E"/>
<path d="M691.703 658.679C725.229 658.679 752.407 630.544 752.407 595.839C752.407 561.134 725.229 533 691.703 533C658.178 533 631 561.134 631 595.839C631 630.544 658.178 658.679 691.703 658.679Z" fill="url(#paint28_linear_60_1113)"/>
<path d="M691.703 656.583C724.111 656.583 750.383 629.387 750.383 595.838C750.383 562.29 724.111 535.094 691.703 535.094C659.295 535.094 633.023 562.29 633.023 595.838C633.023 629.387 659.295 656.583 691.703 656.583Z" fill="url(#paint29_linear_60_1113)"/>
<path d="M643.554 571.194C643.395 571.194 643.217 571.152 643.058 571.07C642.522 570.783 642.304 570.105 642.582 569.551C652.243 550.247 671.307 538.398 692.295 538.644C695.648 538.685 699 539.035 702.254 539.692C702.849 539.815 703.246 540.41 703.127 541.027C703.008 541.643 702.432 542.053 701.837 541.93C698.703 541.294 695.489 540.965 692.275 540.924C672.12 540.698 653.83 552.075 644.546 570.598C644.347 570.968 643.951 571.194 643.554 571.194Z" fill="#EDD3B4"/>
<path opacity="0.78" d="M742.611 597.771C742.913 569.374 720.921 546.101 693.489 545.788C666.058 545.476 643.576 568.242 643.274 596.638C642.971 625.035 664.964 648.308 692.395 648.621C719.827 648.934 742.309 626.167 742.611 597.771Z" fill="#F9E7CF"/>
<path d="M681.64 591.239C681.64 593.507 680.38 594.983 677.572 594.983H673.36V587.603H677.572C680.38 587.603 681.64 589.007 681.64 591.239ZM668.32 583.427V608.555H673.36V598.763H675.736L681.28 608.555H687.112L681.1 598.367C685.132 597.287 686.824 594.191 686.824 591.131C686.824 586.919 683.8 583.427 677.752 583.427H668.32ZM691.382 608.555H696.422V592.211L703.19 608.555H707.006L713.738 592.211V608.555H718.778V583.427H713.09L705.098 602.111L697.106 583.427H691.382V608.555Z" fill="#D69644"/>
<path d="M704.408 503.221L607.798 628.283L551.102 581.339L647.691 456.297L704.408 503.221Z" fill="url(#paint30_linear_60_1113)"/>
<path opacity="0.5" d="M654.393 473.156L686.629 499.832C684.546 502.522 685.28 506.835 688.157 509.217C688.256 509.299 688.196 509.258 688.573 509.566L610.591 610.499C610.234 610.191 610.274 610.232 610.194 610.15C607.318 607.768 603.251 607.953 601.148 610.684C601.109 610.725 601.029 610.704 601.029 610.704L569.527 584.624C573.078 580.024 570.38 577.087 567.504 574.705C567.404 574.623 567.266 574.603 567.266 574.603L645.248 473.649C645.248 473.649 645.347 473.731 645.446 473.813C648.263 476.196 652.33 475.846 654.393 473.156Z" fill="#48DAB5"/>
<path d="M627.593 565.611C640.127 565.611 650.287 555.093 650.287 542.118C650.287 529.143 640.127 518.625 627.593 518.625C615.059 518.625 604.898 529.143 604.898 542.118C604.898 555.093 615.059 565.611 627.593 565.611Z" fill="url(#paint31_linear_60_1113)"/>
<path d="M568.065 590.515C567.966 590.515 567.867 590.474 567.788 590.413L556.857 581.356C556.659 581.192 556.619 580.884 556.778 580.679L580.623 549.793C580.781 549.588 581.079 549.546 581.277 549.711C581.476 549.875 581.515 550.183 581.357 550.388L557.789 580.925L568.363 589.673C568.561 589.838 568.601 590.146 568.442 590.351C568.343 590.454 568.204 590.515 568.065 590.515Z" fill="#002A27"/>
<path d="M674.51 534.93C674.41 534.93 674.311 534.889 674.232 534.827C674.034 534.663 673.994 534.355 674.153 534.149L697.422 504.023L686.849 495.275C686.65 495.111 686.611 494.803 686.769 494.598C686.928 494.392 687.226 494.351 687.424 494.515L698.355 503.572C698.553 503.736 698.593 504.044 698.434 504.249L674.867 534.745C674.768 534.868 674.629 534.93 674.51 534.93Z" fill="#002A27"/>
<path d="M600.302 587.581C603.852 587.581 606.73 584.602 606.73 580.927C606.73 577.252 603.852 574.273 600.302 574.273C596.753 574.273 593.875 577.252 593.875 580.927C593.875 584.602 596.753 587.581 600.302 587.581Z" fill="url(#paint32_linear_60_1113)"/>
<path d="M660.685 509.401C664.235 509.401 667.113 506.422 667.113 502.747C667.113 499.073 664.235 496.094 660.685 496.094C657.135 496.094 654.258 499.073 654.258 502.747C654.258 506.422 657.135 509.401 660.685 509.401Z" fill="url(#paint33_linear_60_1113)"/>
<path d="M612.046 619.981C612.046 622.249 610.786 623.725 607.978 623.725H603.766V616.345H607.978C610.786 616.345 612.046 617.749 612.046 619.981ZM598.726 612.169V637.297H603.766V627.505H606.142L611.686 637.297H617.518L611.506 627.109C615.538 626.029 617.23 622.933 617.23 619.873C617.23 615.661 614.206 612.169 608.158 612.169H598.726ZM621.789 637.297H626.829V620.953L633.597 637.297H637.413L644.145 620.953V637.297H649.185V612.169H643.497L635.505 630.853L627.513 612.169H621.789V637.297Z" fill="#2A0E59"/>
<path d="M787.703 615.679C821.229 615.679 848.407 587.544 848.407 552.839C848.407 518.134 821.229 490 787.703 490C754.178 490 727 518.134 727 552.839C727 587.544 754.178 615.679 787.703 615.679Z" fill="url(#paint34_linear_60_1113)"/>
<path d="M787.703 613.583C820.111 613.583 846.383 586.387 846.383 552.838C846.383 519.29 820.111 492.094 787.703 492.094C755.295 492.094 729.023 519.29 729.023 552.838C729.023 586.387 755.295 613.583 787.703 613.583Z" fill="url(#paint35_linear_60_1113)"/>
<path d="M739.554 528.194C739.395 528.194 739.217 528.152 739.058 528.07C738.522 527.783 738.304 527.105 738.582 526.551C748.243 507.247 767.307 495.398 788.295 495.644C791.648 495.685 795 496.035 798.254 496.692C798.849 496.815 799.246 497.41 799.127 498.027C799.008 498.643 798.432 499.053 797.837 498.93C794.703 498.294 791.489 497.965 788.275 497.924C768.12 497.698 749.83 509.075 740.546 527.598C740.347 527.968 739.951 528.194 739.554 528.194Z" fill="#EDD3B4"/>
<path opacity="0.78" d="M838.611 554.771C838.913 526.374 816.921 503.101 789.489 502.788C762.058 502.476 739.576 525.242 739.274 553.638C738.971 582.035 760.964 605.308 788.395 605.621C815.827 605.934 838.309 583.167 838.611 554.771Z" fill="#F9E7CF"/>
<path d="M777.64 548.239C777.64 550.507 776.38 551.983 773.572 551.983H769.36V544.603H773.572C776.38 544.603 777.64 546.007 777.64 548.239ZM764.32 540.427V565.555H769.36V555.763H771.736L777.28 565.555H783.112L777.1 555.367C781.132 554.287 782.824 551.191 782.824 548.131C782.824 543.919 779.8 540.427 773.752 540.427H764.32ZM787.382 565.555H792.422V549.211L799.19 565.555H803.006L809.738 549.211V565.555H814.778V540.427H809.09L801.098 559.111L793.106 540.427H787.382V565.555Z" fill="#D69644"/>
<path d="M866.127 908.88C883.683 884.997 867.258 737.818 858.767 710.772C851.467 687.505 836.668 675.122 843.135 649.514C847.023 634.092 850.574 618.526 854.819 603.186C856.03 598.853 859.501 594.54 860.315 590.248C860.969 586.737 857.914 582.404 858.37 580.062C854.879 597.744 830.617 601.317 816.652 601.707C797.826 602.241 779.357 597.169 760.888 594.232C741.586 591.152 721.808 591.357 702.565 594.807C692.983 596.532 683.541 599.038 673.88 600.167C655.708 602.303 634.561 600.311 616.311 598.791C600.639 597.477 585.145 594.355 569.434 593.308C559.932 592.671 550.271 593.904 540.828 592.302C538.051 591.829 531.465 588.421 529.025 590.412C525.474 593.308 530.274 599.366 532.734 601.194C540.213 606.779 547.454 606.307 553.782 614.46C559.138 621.36 561.201 630.334 559.753 639.021C557.869 650.336 551.679 658.776 546.204 668.346C541.344 676.827 539.003 685.226 536.523 694.878C531.227 715.639 527.318 736.791 524.581 758.066C518.788 802.978 517.995 848.649 522.081 893.746C509.881 974.143 813.954 979.852 866.127 908.88Z" fill="url(#paint36_linear_60_1113)"/>
<path d="M556.754 619.164C607.797 657.648 689.667 676.459 843.132 649.516C851.444 653.253 847.655 658.88 841.664 664.856C665.961 683.42 593.97 660.544 560.027 630.52C557.786 627.378 553.302 626.413 556.754 619.164Z" fill="url(#paint37_linear_60_1113)"/>
<path d="M621.153 544.423C621.928 545.067 622.075 545.917 621.277 546.877L620.08 548.316L617.557 546.221L618.754 544.781C619.552 543.822 620.39 543.79 621.153 544.423ZM614.697 546.757L623.289 553.892L624.721 552.17L621.373 549.389L622.048 548.577L626.971 549.463L628.628 547.47L623.437 546.632C624.213 544.947 623.635 543.49 622.589 542.621C621.149 541.425 619.096 541.467 617.377 543.534L614.697 546.757ZM629.842 546.011L631.274 544.288L625.686 539.647L633.197 541.975L634.281 540.671L630.606 533.73L636.194 538.37L637.626 536.648L629.035 529.513L627.418 531.457L631.536 539.493L622.877 536.919L621.25 538.876L629.842 546.011Z" fill="#002B27"/>
<path d="M771.29 445.218C771.29 446.226 770.73 446.882 769.482 446.882H767.61V443.602H769.482C770.73 443.602 771.29 444.226 771.29 445.218ZM765.37 441.746V452.914H767.61V448.562H768.666L771.13 452.914H773.722L771.05 448.386C772.842 447.906 773.594 446.53 773.594 445.17C773.594 443.298 772.25 441.746 769.562 441.746H765.37ZM775.62 452.914H777.86V445.65L780.868 452.914H782.564L785.556 445.65V452.914H787.796V441.746H785.268L781.716 450.05L778.164 441.746H775.62V452.914Z" fill="#D69644"/>
<rect x="768.031" y="380.258" width="3" height="15.3616" rx="1.5" fill="#6031AE"/>
<rect x="781.031" y="367" width="3" height="29.5625" rx="1.5" fill="#6031AE"/>
<rect x="612" y="330" width="3" height="40" rx="1.5" fill="#6031AE"/>
<rect x="599" y="355" width="3" height="22" rx="1.5" fill="#6031AE"/>
<path d="M953.731 993.775C953.025 990.716 953.763 987.892 955.245 985.277C956.186 983.607 957.422 982.121 958.511 980.544C958.802 980.161 959.166 979.824 959.383 979.395C960.001 978.242 959.485 977.097 958.207 976.76C957.806 976.664 957.432 976.687 957.031 976.59C952.371 975.833 948.602 973.733 946.489 969.231C946.13 968.492 945.784 967.814 945.438 967.136C945.207 966.684 944.903 966.186 944.612 965.747C944.22 965.143 943.629 964.774 942.863 965.014C942.098 965.254 941.788 965.83 941.775 966.591C941.742 967.546 941.784 968.548 941.765 969.562C941.733 972.16 941.7 974.757 941.026 977.313C940.607 979.052 939.891 980.607 938.627 981.972C937.409 983.264 937.626 984.477 939.208 985.313C940.495 985.963 941.935 986.452 943.268 987.029C946.423 988.386 948.592 990.665 949.62 994.028C949.865 994.54 950.031 995.26 950.317 995.952C950.755 997.304 950.976 997.442 952.19 997.225C953.417 997.068 953.966 996.436 953.957 995.302C953.966 994.794 953.782 994.268 953.731 993.775Z" fill="#EEAC55"/>
<path d="M453.353 291.898C453.353 294.896 454.618 297.365 456.516 299.481C457.724 300.833 459.162 301.95 460.484 303.184C460.829 303.478 461.232 303.713 461.52 304.066C462.325 305.006 462.095 306.182 461.002 306.77C460.657 306.946 460.312 307.005 459.967 307.181C455.883 308.886 452.893 311.649 451.915 316.292C451.742 317.057 451.57 317.762 451.397 318.467C451.282 318.938 451.11 319.467 450.937 319.937C450.707 320.584 450.247 321.054 449.499 320.995C448.752 320.936 448.349 320.466 448.177 319.761C447.947 318.879 447.774 317.938 447.544 316.998C446.969 314.588 446.394 312.178 445.243 309.944C444.496 308.416 443.518 307.122 442.08 306.123C440.7 305.183 440.642 304.007 441.908 302.89C442.943 302.008 444.151 301.244 445.243 300.421C447.832 298.482 449.327 295.895 449.557 292.545C449.672 292.016 449.672 291.31 449.787 290.605C449.902 289.253 450.075 289.076 451.225 289.018C452.375 288.9 453.008 289.37 453.238 290.428C453.353 290.899 453.295 291.428 453.353 291.898Z" fill="#EC3ABA"/>
<defs>
<linearGradient id="paint0_linear_60_1113" x1="701.648" y1="306.59" x2="691.206" y2="684.842" gradientUnits="userSpaceOnUse">
<stop stop-color="#230D48"/>
<stop offset="1" stop-color="#2D1456"/>
</linearGradient>
<linearGradient id="paint1_linear_60_1113" x1="723.908" y1="510.811" x2="777.272" y2="450.975" gradientUnits="userSpaceOnUse">
<stop stop-color="#F8B764"/>
<stop offset="1" stop-color="#FFB763"/>
</linearGradient>
<linearGradient id="paint2_linear_60_1113" x1="804.223" y1="404.178" x2="645.081" y2="636.424" gradientUnits="userSpaceOnUse">
<stop stop-color="#E4A451"/>
<stop offset="1" stop-color="#AD772E"/>
</linearGradient>
<linearGradient id="paint3_linear_60_1113" x1="536.952" y1="543.857" x2="676.741" y2="561.105" gradientUnits="userSpaceOnUse">
<stop stop-color="#372273"/>
<stop offset="0.9964" stop-color="#321E6B"/>
</linearGradient>
<linearGradient id="paint4_linear_60_1113" x1="616.59" y1="549.006" x2="799.938" y2="633.651" gradientUnits="userSpaceOnUse">
<stop stop-color="#391B6A"/>
<stop offset="0.9964" stop-color="#372272"/>
</linearGradient>
<linearGradient id="paint5_linear_60_1113" x1="522.567" y1="555.702" x2="608.254" y2="461.735" gradientUnits="userSpaceOnUse">
<stop stop-color="#D79B4B"/>
<stop offset="1" stop-color="#F8B763"/>
</linearGradient>
<linearGradient id="paint6_linear_60_1113" x1="651.798" y1="387.961" x2="395.282" y2="753.511" gradientUnits="userSpaceOnUse">
<stop stop-color="#EEAC55"/>
<stop offset="1" stop-color="#452C0A"/>
</linearGradient>
<linearGradient id="paint7_linear_60_1113" x1="618.852" y1="545.412" x2="687.896" y2="572.371" gradientUnits="userSpaceOnUse">
<stop stop-color="#065751"/>
<stop offset="0.9964" stop-color="#18676B"/>
</linearGradient>
<linearGradient id="paint8_linear_60_1113" x1="613.309" y1="541.865" x2="796.656" y2="626.509" gradientUnits="userSpaceOnUse">
<stop stop-color="#372272"/>
<stop offset="0.9964" stop-color="#372272"/>
</linearGradient>
<linearGradient id="paint9_linear_60_1113" x1="607.567" y1="694.709" x2="693.254" y2="600.743" gradientUnits="userSpaceOnUse">
<stop stop-color="#D79B4B"/>
<stop offset="1" stop-color="#F8B763"/>
</linearGradient>
<linearGradient id="paint10_linear_60_1113" x1="736.798" y1="526.969" x2="480.282" y2="892.519" gradientUnits="userSpaceOnUse">
<stop stop-color="#EEAC55"/>
<stop offset="1" stop-color="#452C0A"/>
</linearGradient>
<linearGradient id="paint11_linear_60_1113" x1="635.265" y1="548.03" x2="719.959" y2="608.446" gradientUnits="userSpaceOnUse">
<stop stop-color="#065651"/>
<stop offset="0.9964" stop-color="#53A0C0"/>
</linearGradient>
<linearGradient id="paint12_linear_60_1113" x1="615.872" y1="530.751" x2="767.145" y2="667.453" gradientUnits="userSpaceOnUse">
<stop stop-color="#17676A"/>
<stop offset="0.9964" stop-color="#6CA6A2"/>
</linearGradient>
<linearGradient id="paint13_linear_60_1113" x1="614.739" y1="593.772" x2="582.567" y2="567.061" gradientUnits="userSpaceOnUse">
<stop stop-color="#2B9C88"/>
<stop offset="0.9964" stop-color="#1D0A3C"/>
</linearGradient>
<linearGradient id="paint14_linear_60_1113" x1="677.727" y1="517.905" x2="645.554" y2="491.194" gradientUnits="userSpaceOnUse">
<stop stop-color="#065651"/>
<stop offset="0.0001" stop-color="#299A86"/>
<stop offset="0.9964" stop-color="#361967"/>
<stop offset="0.9965" stop-color="#23445A"/>
</linearGradient>
<linearGradient id="paint15_linear_60_1113" x1="703.567" y1="651.709" x2="789.254" y2="557.743" gradientUnits="userSpaceOnUse">
<stop stop-color="#D79B4B"/>
<stop offset="1" stop-color="#F8B763"/>
</linearGradient>
<linearGradient id="paint16_linear_60_1113" x1="832.798" y1="483.969" x2="576.282" y2="849.519" gradientUnits="userSpaceOnUse">
<stop stop-color="#EEAC55"/>
<stop offset="1" stop-color="#452C0A"/>
</linearGradient>
<linearGradient id="paint17_linear_60_1113" x1="807.348" y1="453.206" x2="566.984" y2="1201.68" gradientUnits="userSpaceOnUse">
<stop stop-color="#471992"/>
<stop offset="1" stop-color="#1F0C40"/>
</linearGradient>
<linearGradient id="paint18_linear_60_1113" x1="700.605" y1="515.095" x2="702.717" y2="734.866" gradientUnits="userSpaceOnUse">
<stop stop-color="#371B66"/>
<stop offset="1" stop-color="#9455C8"/>
</linearGradient>
<linearGradient id="paint19_linear_60_1113" x1="701.648" y1="306.59" x2="691.206" y2="684.842" gradientUnits="userSpaceOnUse">
<stop stop-color="#230D48"/>
<stop offset="1" stop-color="#2D1456"/>
</linearGradient>
<linearGradient id="paint20_linear_60_1113" x1="723.908" y1="510.811" x2="777.272" y2="450.975" gradientUnits="userSpaceOnUse">
<stop stop-color="#F8B764"/>
<stop offset="1" stop-color="#FFB763"/>
</linearGradient>
<linearGradient id="paint21_linear_60_1113" x1="804.223" y1="404.178" x2="645.081" y2="636.424" gradientUnits="userSpaceOnUse">
<stop stop-color="#E4A451"/>
<stop offset="1" stop-color="#AD772E"/>
</linearGradient>
<linearGradient id="paint22_linear_60_1113" x1="536.952" y1="543.857" x2="676.741" y2="561.105" gradientUnits="userSpaceOnUse">
<stop stop-color="#372273"/>
<stop offset="0.9964" stop-color="#321E6B"/>
</linearGradient>
<linearGradient id="paint23_linear_60_1113" x1="616.59" y1="549.006" x2="799.938" y2="633.651" gradientUnits="userSpaceOnUse">
<stop stop-color="#391B6A"/>
<stop offset="0.9964" stop-color="#372272"/>
</linearGradient>
<linearGradient id="paint24_linear_60_1113" x1="522.567" y1="555.702" x2="608.254" y2="461.735" gradientUnits="userSpaceOnUse">
<stop stop-color="#D79B4B"/>
<stop offset="1" stop-color="#F8B763"/>
</linearGradient>
<linearGradient id="paint25_linear_60_1113" x1="651.798" y1="387.961" x2="395.282" y2="753.511" gradientUnits="userSpaceOnUse">
<stop stop-color="#EEAC55"/>
<stop offset="1" stop-color="#452C0A"/>
</linearGradient>
<linearGradient id="paint26_linear_60_1113" x1="618.852" y1="545.412" x2="687.896" y2="572.371" gradientUnits="userSpaceOnUse">
<stop stop-color="#065751"/>
<stop offset="0.9964" stop-color="#18676B"/>
</linearGradient>
<linearGradient id="paint27_linear_60_1113" x1="613.309" y1="541.865" x2="796.656" y2="626.509" gradientUnits="userSpaceOnUse">
<stop stop-color="#372272"/>
<stop offset="0.9964" stop-color="#372272"/>
</linearGradient>
<linearGradient id="paint28_linear_60_1113" x1="607.567" y1="694.709" x2="693.254" y2="600.743" gradientUnits="userSpaceOnUse">
<stop stop-color="#D79B4B"/>
<stop offset="1" stop-color="#F8B763"/>
</linearGradient>
<linearGradient id="paint29_linear_60_1113" x1="736.798" y1="526.969" x2="480.282" y2="892.519" gradientUnits="userSpaceOnUse">
<stop stop-color="#EEAC55"/>
<stop offset="1" stop-color="#452C0A"/>
</linearGradient>
<linearGradient id="paint30_linear_60_1113" x1="635.265" y1="548.03" x2="719.959" y2="608.446" gradientUnits="userSpaceOnUse">
<stop stop-color="#065651"/>
<stop offset="0.9964" stop-color="#53A0C0"/>
</linearGradient>
<linearGradient id="paint31_linear_60_1113" x1="615.872" y1="530.751" x2="767.145" y2="667.453" gradientUnits="userSpaceOnUse">
<stop stop-color="#17676A"/>
<stop offset="0.9964" stop-color="#6CA6A2"/>
</linearGradient>
<linearGradient id="paint32_linear_60_1113" x1="614.739" y1="593.772" x2="582.567" y2="567.061" gradientUnits="userSpaceOnUse">
<stop stop-color="#2B9C88"/>
<stop offset="0.9964" stop-color="#1D0A3C"/>
</linearGradient>
<linearGradient id="paint33_linear_60_1113" x1="677.727" y1="517.905" x2="645.554" y2="491.194" gradientUnits="userSpaceOnUse">
<stop stop-color="#065651"/>
<stop offset="0.0001" stop-color="#299A86"/>
<stop offset="0.9964" stop-color="#361967"/>
<stop offset="0.9965" stop-color="#23445A"/>
</linearGradient>
<linearGradient id="paint34_linear_60_1113" x1="703.567" y1="651.709" x2="789.254" y2="557.743" gradientUnits="userSpaceOnUse">
<stop stop-color="#D79B4B"/>
<stop offset="1" stop-color="#F8B763"/>
</linearGradient>
<linearGradient id="paint35_linear_60_1113" x1="832.798" y1="483.969" x2="576.282" y2="849.519" gradientUnits="userSpaceOnUse">
<stop stop-color="#EEAC55"/>
<stop offset="1" stop-color="#452C0A"/>
</linearGradient>
<linearGradient id="paint36_linear_60_1113" x1="807.348" y1="453.206" x2="566.984" y2="1201.68" gradientUnits="userSpaceOnUse">
<stop stop-color="#471992"/>
<stop offset="1" stop-color="#1F0C40"/>
</linearGradient>
<linearGradient id="paint37_linear_60_1113" x1="700.605" y1="515.095" x2="702.717" y2="734.866" gradientUnits="userSpaceOnUse">
<stop stop-color="#371B66"/>
<stop offset="1" stop-color="#9455C8"/>
</linearGradient>
</defs>
</svg>
