<svg width="1400" height="1300" viewBox="0 0 1400 1300" fill="none" xmlns="http://www.w3.org/2000/svg">
<path d="M778.108 195.001C952.298 250.417 1111.88 168.02 1078.31 556.035C1072.37 624.722 1059.24 718.566 1042.16 796.453C1028.33 859.55 1008.82 928.025 980.519 986.125C933.757 1082.06 864.779 1146.06 759.303 1125.48C651.372 1104.41 602.312 983.089 554.806 990.437C407.788 1013.11 325.308 906.252 323.425 730.386C321.08 507.831 486.085 454.268 484.091 363.291C480.866 215.832 600.771 138.585 778.108 195.001Z" fill="#FAF8FC"/>
<mask id="mask0_60_1833" style="mask-type:alpha" maskUnits="userSpaceOnUse" x="323" y="176" width="760" height="954">
<path d="M778.108 195.009C952.298 250.425 1111.88 168.028 1078.31 556.043C1072.37 624.73 1059.24 718.573 1042.16 796.461C1028.33 859.557 1008.82 928.033 980.52 986.133C933.757 1082.06 864.779 1146.07 759.303 1125.49C651.372 1104.42 602.312 983.097 554.806 990.445C407.788 1013.12 325.308 906.259 323.425 730.394C321.08 507.838 486.085 454.276 484.091 363.299C480.866 215.84 600.771 138.593 778.108 195.009Z" fill="#FAF8FC"/>
</mask>
<g mask="url(#mask0_60_1833)">
<path d="M849.996 958.846C849.996 958.846 865.988 944.261 861.037 915.425C856.085 886.589 839.099 866.028 824.082 855.617C799.419 838.498 776.933 849.963 782.695 861.263C785.899 867.573 780.08 886.275 776.206 885.399C757.984 881.291 805.571 990.82 849.996 958.846Z" fill="#A37DE4"/>
<path d="M913.743 1086.47L884.193 1090.52L796.536 1090.47C793.311 1077.08 789.811 1062.96 785.72 1049.9C781.3 1035.78 772.993 1012.09 760.953 1005.37C750.095 999.34 744.97 994.23 744.696 994.222C733.007 982.806 722.599 962.34 716.186 946.646C708.796 929.023 701.404 906.404 697.653 891.499C709.339 892.458 833.41 902.554 848.635 903.792C849.295 915.292 858.813 941.14 858.813 941.646C878.039 996.298 899.287 1047.25 913.743 1086.47Z" fill="#A37DE4"/>
<path d="M763.722 1007.74C774.104 1011.58 785.307 1010.8 794.877 1005.58C795.598 1005.18 795.089 1003.84 794.363 1004.23C785.099 1009.32 774.243 1010.1 764.172 1006.41C763.415 1006.12 762.927 1007.44 763.706 1007.73L763.722 1007.74Z" fill="#7952BB"/>
<path d="M883.347 1007.04C872.044 1008.55 869.736 990.824 861.946 977.704C854.661 965.438 859.811 953.543 861.801 949.807C867.971 967.144 875.587 987.071 883.347 1007.04Z" fill="#A37DE4"/>
<path d="M780.35 1130.74C780.35 1130.74 778.104 1088.13 778.02 1087.41C776.872 1077.73 775.225 1066.86 772.833 1056.48C772.549 1055.23 772.246 1053.96 771.936 1052.72C767.987 1036.99 769.783 1031.67 777.124 1030.54C777.576 1030.47 778.047 1030.41 778.539 1030.38C782.435 1030.06 787.638 1030.64 794.126 1031.41C798.715 1031.94 803.953 1032.57 809.824 1033.03C830.134 1034.62 850.888 1009.98 867.465 993.543C869.688 991.342 871.829 989.282 873.889 987.457C876.87 984.817 879.669 982.65 882.257 981.221C885.752 979.294 888.856 978.707 891.481 980.073C894.399 981.543 896.864 983.976 898.531 987.032C898.871 987.627 899.185 988.241 899.47 988.87V988.87C902.031 994.509 903.107 1001.88 904.692 1010.01C904.871 1010.92 905.053 1011.8 905.243 1012.72C907.101 1021.66 972.392 1141.49 972.392 1141.49L780.35 1130.74Z" fill="#7952BB"/>
<path d="M859.225 988.457L852.849 994.482C851.515 995.746 853.233 998.298 854.568 997.025L860.946 991.019C862.28 989.754 860.562 987.202 859.227 988.475L859.225 988.457Z" fill="#7952BB"/>
<path d="M858.287 940.267C853.905 951.532 847.712 961.76 840.004 970.467C837.855 972.876 835.593 975.157 833.226 977.301C832.587 977.889 833.394 979.083 834.036 978.5C842.631 970.659 849.824 961.104 855.268 950.297C856.808 947.242 858.211 944.095 859.478 940.856C859.529 940.684 859.52 940.495 859.451 940.327C859.382 940.158 859.26 940.022 859.108 939.946C858.956 939.871 858.786 939.86 858.632 939.918C858.478 939.975 858.351 940.096 858.277 940.256L858.287 940.267Z" fill="#7952BB"/>
<path d="M717.356 998.423C719.719 999.149 722.174 999.363 724.579 999.053C726.984 998.744 729.293 997.916 731.374 996.619C733.455 995.321 735.267 993.578 736.707 991.491C738.146 989.403 739.185 987.01 739.763 984.45L794.136 743.926C794.714 741.367 794.822 738.69 794.452 736.049C794.082 733.408 793.242 730.853 791.98 728.532C790.718 726.211 789.059 724.169 787.097 722.521C785.136 720.873 782.91 719.653 780.547 718.93V718.93C778.184 718.206 775.731 717.993 773.326 718.303C770.922 718.614 768.614 719.441 766.534 720.739C764.454 722.037 762.643 723.779 761.204 725.866C759.765 727.954 758.726 730.345 758.148 732.905L703.765 973.45C702.603 978.616 703.382 984.148 705.93 988.83C708.478 993.513 712.588 996.963 717.356 998.423V998.423Z" fill="#6236AE"/>
<path d="M856.378 894.084C849.576 874.27 827.145 830.131 814.263 816.972C790.173 792.381 780.114 759.752 775.105 759.179C770.097 758.606 759.782 773.025 767.974 801.092C776.052 828.777 794.493 844.756 795.418 850.83C796.342 856.905 799.659 884.272 799.659 884.272C799.659 884.272 861.652 909.449 856.378 894.084Z" fill="#A37DE4"/>
<path d="M799.301 737.986L887.842 777.262C909.481 789.021 948.045 710.594 915.086 691.081L825.495 651.34L799.301 737.986Z" fill="#8359CA"/>
<path d="M581.71 760.119C748.63 704.096 802.89 740.176 802.89 740.176L829.21 653.045C829.21 653.045 787.473 621.914 671.343 455.219L581.71 760.119Z" fill="#5729A4"/>
<path d="M561.735 765.342C530.481 752.516 526.846 669.48 553.615 579.877C580.384 490.273 627.421 428.033 658.675 440.859C689.929 453.685 693.564 536.721 666.795 626.324C640.025 715.928 592.988 778.168 561.735 765.342Z" fill="#361868"/>
<path d="M702.311 514.198C717.061 545.608 736.333 572.602 759.633 594.639C763.968 598.733 757.908 606.679 753.59 602.601C729.748 580.055 709.978 552.219 694.888 520.095C692.147 514.258 699.553 508.344 702.299 514.196L702.311 514.198Z" fill="#D2BCF9"/>
<path d="M776.007 618.406C782.545 626.165 789.44 633.544 796.66 640.509C800.949 644.645 794.915 652.551 790.63 648.452C783.41 641.487 776.515 634.108 769.977 626.348C766.058 621.7 772.062 613.735 776.007 618.406Z" fill="#D2BCF9"/>
<path d="M904.158 717.614C904.256 715.584 899.936 712.252 898.744 711.216C896.526 709.331 894.105 707.772 891.544 706.577C886.436 704.092 889.941 694.195 895.06 696.686C902.358 700.239 913.19 707.622 912.653 718.979C912.33 725.872 903.832 724.463 904.154 717.613L904.158 717.614Z" fill="#D4BEFA"/>
<path d="M559.275 664.968C557.5 675.604 556.759 686.457 557.065 697.346C557.392 707.753 544.241 710.093 543.928 699.635C543.505 687.288 544.268 674.973 546.203 662.894C547.874 652.607 560.957 654.624 559.275 664.968Z" fill="#D2BBF9"/>
<path d="M634.612 581.529C634.612 581.529 606.74 573.773 599.754 590.829C592.767 607.885 608.765 627.651 615.435 628.304C622.105 628.957 640.774 609.6 634.612 581.529Z" fill="#5729A4"/>
<path d="M618.139 595.702C616.24 595.646 614.149 596.84 612.402 598.827C610.655 600.814 607.676 600.005 606.393 597.863C604.91 595.399 605.571 592.323 607.313 590.34C608.871 588.571 610.749 587.191 612.832 586.283C614.914 585.376 617.157 584.961 619.421 585.065C621.744 585.133 623.347 588.394 623.018 591.064C622.892 592.397 622.321 593.612 621.419 594.47C620.516 595.328 619.346 595.768 618.139 595.702V595.702Z" fill="#D2BBF9"/>
<path d="M785.024 878.944C783.647 876.023 785.867 874.176 780.433 871.571C762.723 859.94 742.828 853.94 723.094 848.848C714.883 846.732 706.144 844.781 698.382 848.034C690.621 851.287 684.738 861.806 688.364 870.627C691.035 877.158 697.498 880.205 703.378 882.587C725.267 891.464 743.05 894.116 765.939 897.149C771.853 897.933 777.895 896.826 782.309 892.433C786.722 888.041 787.896 885.042 785.024 878.944Z" fill="#A37DE4"/>
<path d="M714.191 878.257C707.191 872.054 696.575 874.029 688.513 877.412C680.451 880.795 674.331 891.737 678.1 900.909C680.879 907.684 687.593 910.876 693.713 913.355C716.462 922.587 731.733 919.504 755.52 922.654C761.665 923.47 771.49 923.417 773.65 918.874C779.6 906.348 763.721 898.012 736.809 893.546C727.472 891.994 718.977 882.503 714.191 878.257Z" fill="#A37DE4"/>
<path d="M763.236 925.175C761.731 923.321 743.752 915.866 727.47 916.82C720.708 917.208 713.524 917.846 707.887 922.155C702.25 926.464 699.115 935.728 703.237 941.448C706.277 945.673 711.808 946.415 716.78 946.785C735.297 948.161 733.41 948.502 751.878 945.267C756.649 944.43 763.733 941.675 766.578 937.346C769.422 933.017 766.371 929.038 763.236 925.175Z" fill="#A37DE4"/>
<path d="M791.156 847.557C775.43 837.197 763.398 830.93 745.874 826.393C738.571 824.505 730.826 822.772 723.938 825.655C717.051 828.539 711.823 837.939 715.039 845.782C717.417 851.58 723.153 854.313 728.374 856.438C747.807 864.34 765.172 875.358 785.545 875.202C808.24 875.034 795.977 849.874 791.156 847.557Z" fill="#A37DE4"/>
<path d="M716.69 848.383C729.401 851.739 741.988 855.713 754.45 860.305C760.51 862.54 766.601 864.785 772.519 867.487C778.054 870.019 783.492 874.103 784.943 881.144C785.201 882.373 786.812 881.852 786.576 880.631C785.308 874.436 781.027 869.977 776.183 867.222C770.246 863.867 763.676 861.717 757.42 859.362C744.143 854.364 730.705 850.073 717.104 846.489C716.035 846.207 715.635 848.081 716.708 848.364L716.69 848.383Z" fill="#7952BB"/>
<path d="M750.83 828.348C757.829 831.25 764.767 834.379 771.644 837.734C777.697 840.704 784.2 843.474 789.75 847.672C794.802 851.489 799.281 858.599 797.738 865.826C796.17 873.167 789.484 874.119 783.932 874.212C782.874 874.231 782.929 876.141 783.987 876.123C788.361 876.054 793.012 875.704 796.323 872.195C799.83 868.491 800.324 862.666 798.76 857.509C797.042 851.838 793.227 847.747 788.81 844.811C783.411 841.233 777.489 838.56 771.785 835.774C764.999 832.463 758.144 829.367 751.219 826.483C750.208 826.066 749.837 827.912 750.836 828.327L750.83 828.348Z" fill="#7952BB"/>
<path d="M692.853 877.646C698.672 876.308 704.746 880.372 710.069 882.771C714.563 884.806 719.076 886.674 723.683 888.366C732.754 891.698 741.997 894.298 751.176 897.159C752.214 897.484 752.597 895.672 751.559 895.352C742.053 892.392 732.516 889.713 723.137 886.214C718.276 884.398 713.479 882.359 708.726 880.179C703.486 877.776 698.053 874.525 692.359 875.834C691.32 876.082 691.821 877.866 692.853 877.646V877.646Z" fill="#7952BB"/>
<path d="M708.319 923.163C710.391 921.701 712.903 921.731 715.3 921.596C717.024 921.5 718.748 921.427 720.47 921.378C724.902 921.244 729.337 921.209 733.776 921.275C738.492 921.347 743.243 921.535 747.968 921.98C751.827 922.333 755.775 922.76 759.556 923.988C761.075 924.485 762.48 925.125 763.655 926.417C765.823 928.796 767.905 933.298 765.936 936.378C765.379 937.243 766.702 938.091 767.25 937.233C769.991 932.948 766.565 926.02 762.887 923.662C759.893 921.766 756.12 921.321 752.822 920.85C742.675 919.386 732.355 919.395 722.198 919.645C719.977 919.697 717.755 919.78 715.533 919.895C712.784 920.042 709.915 920.033 707.54 921.707C706.737 922.271 707.53 923.742 708.337 923.175L708.319 923.163Z" fill="#7952BB"/>
<path d="M715.878 948.034C723.181 948.731 730.566 948.497 737.825 947.909C745.423 947.279 753.456 946.403 760.545 943.221C763.007 942.115 765.687 940.639 767.05 937.893C767.525 936.944 766.203 936.075 765.732 937.025C764.553 939.387 762.079 940.682 759.955 941.621C756.763 942.953 753.448 943.929 750.058 944.532C742.312 946.077 734.359 946.624 726.459 946.695C722.904 946.721 719.36 946.653 715.845 946.321C714.884 946.229 714.939 947.954 715.894 948.062L715.878 948.034Z" fill="#7952BB"/>
<path d="M747.106 895.521C751.658 897.056 756.333 897.716 761.022 897.989C765.098 898.231 769.21 898.291 773.22 897.508C780.092 896.158 788.685 890.854 786.23 881.158C785.921 879.929 784.294 880.448 784.591 881.679C787.082 891.482 776.443 895.343 770.092 895.975C762.705 896.712 754.7 896.044 747.488 893.617C746.423 893.258 746.03 895.16 747.09 895.519L747.106 895.521Z" fill="#7952BB"/>
<path d="M796.325 884.333C796.596 891.666 795.844 898.962 794.095 905.967C792.466 912.456 790.66 918.539 790.715 925.451C790.771 937.624 792.964 950.686 797.427 961.914C799.781 967.98 803.126 973.555 807.292 978.353C808.139 979.316 809.398 977.82 808.536 976.876C800.949 968.279 796.804 956.841 794.604 945.182C793.417 939.031 792.735 932.795 792.567 926.55C792.409 919.527 794.129 913.407 795.808 906.841C797.656 899.546 798.455 891.942 798.18 884.297C798.175 884.166 798.148 884.036 798.098 883.914C798.048 883.793 797.977 883.683 797.89 883.59C797.802 883.497 797.699 883.423 797.587 883.373C797.475 883.323 797.355 883.297 797.236 883.297C797.116 883.297 796.999 883.323 796.89 883.374C796.781 883.424 796.683 883.498 796.601 883.591C796.52 883.684 796.456 883.794 796.414 883.915C796.373 884.037 796.353 884.167 796.358 884.298L796.325 884.333Z" fill="#7952BB"/>
<path d="M769.299 907.399C767.261 905.5 764.667 904.561 762.165 903.986C759.976 903.478 756.631 902.836 754.697 904.372C751.945 906.535 751.171 915.334 754.141 917.862C755.707 919.199 758.393 919.37 760.214 919.563C762.934 919.855 766.049 919.766 768.384 918.045C771.549 915.71 772.14 910.596 769.299 907.399C768.418 906.405 767.139 907.945 768.02 908.938C770.851 912.115 768.617 916.086 765.59 917.049C763.336 917.767 760.815 917.576 758.496 917.138C757.776 917.011 757.062 916.839 756.356 916.626C755.873 916.542 755.415 916.31 755.035 915.956C754.186 914.928 754.208 912.603 754.27 911.302C754.332 910.001 754.587 907.835 755.346 906.774C756.377 905.359 758.556 905.627 760.027 905.79C762.652 906.083 765.895 906.963 768.024 908.939C768.964 909.82 770.258 908.288 769.299 907.399Z" fill="#7952BB"/>
<path d="M778.499 876.207C776.44 873.89 773.603 872.591 770.921 871.646C768.56 870.795 765.235 869.884 762.874 870.927C760.726 871.875 759.735 875.292 759.358 877.71C758.98 880.053 758.769 883.636 760.193 885.662C761.617 887.688 764.93 888.272 766.95 888.72C769.971 889.389 773.33 889.721 776.169 888.303C777.149 887.828 778.009 887.103 778.683 886.185C779.356 885.267 779.825 884.181 780.052 883.01C780.279 881.84 780.259 880.617 779.992 879.437C779.725 878.258 779.22 877.153 778.515 876.209C777.61 874.995 776.178 876.737 777.076 877.945C780.099 881.993 776.704 886.115 773.23 886.696C770.496 887.151 767.585 886.527 764.915 885.667C764.202 885.456 763.503 885.187 762.822 884.863C760.444 883.649 761.134 879.013 761.761 876.753C762.179 875.241 762.772 873.331 764.277 873.038C765.782 872.744 767.445 873.121 768.893 873.5C771.715 874.245 774.938 875.505 777.079 877.915C778.046 879.061 779.486 877.325 778.499 876.207Z" fill="#7952BB"/>
<path d="M793.13 856.412C791.334 853.898 788.661 852.324 786.162 851.08C783.901 849.96 780.763 848.645 778.291 849.273C774.335 850.255 772.116 859.275 773.873 863.214C774.925 865.563 778.188 866.606 780.177 867.343C783.159 868.455 786.627 869.295 789.65 868.265C793.877 866.832 796.011 861.19 793.319 856.683C792.536 855.371 790.743 856.597 791.536 857.92C794.282 862.519 790.49 866.2 786.759 866.248C783.974 866.284 781.149 865.309 778.564 864.094C777.792 863.788 777.054 863.381 776.364 862.88C774.38 861.214 775.856 856.184 776.747 854.273C777.681 852.255 778.682 851.415 780.796 851.773C781.984 851.988 783.154 852.338 784.285 852.82C786.926 853.921 789.869 855.604 791.709 858.161C792.578 859.373 794.006 857.635 793.13 856.412Z" fill="#7952BB"/>
<path d="M760.554 927.685C758.103 926.461 755.214 926.449 752.678 926.992C750.364 927.472 748.517 928.329 748.237 931.275C748.001 933.637 748.457 936.901 749.962 938.75C750.839 939.824 752.061 939.815 753.208 939.755C755.853 939.601 758.81 939.025 760.94 937.163C763.664 934.743 763.791 929.914 760.554 927.685C759.559 927.001 758.722 928.778 759.717 929.463C762.398 931.313 761.181 934.691 759.091 936.031C757.566 937.005 755.732 937.419 753.994 937.611C753.466 937.7 752.93 937.732 752.393 937.708C750.703 937.533 750.148 935.32 749.957 933.594C749.832 932.482 749.762 931.108 750.396 930.252C751.03 929.396 752.247 929.167 753.179 928.971C755.212 928.552 757.752 928.486 759.705 929.461C760.766 929.984 761.614 928.213 760.554 927.685Z" fill="#7952BB"/>
<path d="M779.941 765.037C778.236 764.715 776.763 766.017 776.651 768.073C776.492 770.972 778.755 773.941 780.082 776.194C782.185 779.791 785.584 787.981 790.166 784.063C791.02 783.326 790.13 781.64 789.269 782.371C786.161 785.018 783.921 779.304 782.469 776.843C781.633 775.432 780.781 774.018 779.999 772.581C779.669 771.953 779.294 771.321 778.987 770.666C778.541 769.703 777.639 766.541 779.554 766.909C780.615 767.093 781.013 765.228 779.943 765.02L779.941 765.037Z" fill="#7952BB"/>
<path d="M343.859 372.562L503.313 488.182C504.092 488.747 505.034 488.934 505.933 488.703C506.832 488.472 507.614 487.842 508.107 486.95V486.95C508.352 486.509 508.518 486.017 508.596 485.502C508.674 484.987 508.663 484.46 508.564 483.95C508.464 483.44 508.277 482.957 508.014 482.53C507.751 482.103 507.417 481.739 507.032 481.46L347.578 365.835C347.193 365.555 346.763 365.364 346.313 365.275C345.864 365.185 345.403 365.198 344.958 365.312C344.513 365.427 344.092 365.64 343.719 365.942C343.346 366.243 343.028 366.625 342.784 367.067C342.296 367.96 342.135 369.038 342.337 370.067C342.538 371.096 343.085 371.992 343.859 372.562Z" fill="#4B3078"/>
<path d="M490.77 355.346L553.253 426.512C554.27 427.67 554.275 429.552 553.264 430.717L552.022 432.147C551.011 433.311 549.368 433.316 548.351 432.158L485.868 360.993C484.851 359.835 484.847 357.952 485.858 356.788L487.099 355.358C488.11 354.194 489.754 354.189 490.77 355.346Z" fill="#4B3078"/>
<path d="M315.812 688.539L472.88 661.368C473.295 661.296 473.718 661.318 474.125 661.433C474.533 661.549 474.916 661.755 475.254 662.04C475.591 662.325 475.876 662.683 476.093 663.095C476.31 663.506 476.453 663.963 476.515 664.438L476.599 665.076C476.726 666.035 476.514 667.012 476.012 667.793C475.509 668.574 474.757 669.094 473.92 669.239L316.851 696.41C316.436 696.483 316.013 696.46 315.606 696.345C315.199 696.23 314.815 696.024 314.478 695.739C314.14 695.454 313.855 695.095 313.638 694.684C313.422 694.272 313.278 693.816 313.216 693.341L313.132 692.703C313.006 691.744 313.217 690.766 313.719 689.986C314.222 689.205 314.974 688.685 315.812 688.539Z" fill="#4B3078"/>
<path d="M387.886 542.03L470.603 576.814C470.923 576.949 471.217 577.154 471.468 577.418C471.719 577.683 471.922 578.001 472.065 578.356C472.208 578.71 472.29 579.093 472.304 579.484C472.318 579.874 472.264 580.263 472.147 580.63L471.543 582.516C471.304 583.257 470.819 583.859 470.194 584.191C469.568 584.523 468.853 584.557 468.206 584.286L385.492 549.504C384.845 549.232 384.319 548.678 384.029 547.962C383.739 547.246 383.708 546.428 383.945 545.686L384.549 543.8C384.788 543.059 385.273 542.457 385.898 542.125C386.524 541.793 387.239 541.759 387.886 542.03V542.03Z" fill="#4B3078"/>
<path d="M918.333 1089.04C917.645 1085.6 918.365 1082.44 919.807 1079.5C920.724 1077.63 921.929 1075.96 922.99 1074.19C923.273 1073.76 923.628 1073.38 923.84 1072.9C924.442 1071.61 923.939 1070.32 922.694 1069.94C922.303 1069.84 921.938 1069.86 921.547 1069.75C917.008 1068.9 913.336 1066.55 911.278 1061.49C910.927 1060.67 910.59 1059.91 910.253 1059.14C910.028 1058.64 909.732 1058.08 909.449 1057.59C909.067 1056.91 908.491 1056.49 907.745 1056.76C906.999 1057.03 906.698 1057.68 906.684 1058.53C906.653 1059.6 906.693 1060.73 906.675 1061.87C906.644 1064.78 906.612 1067.7 905.956 1070.56C905.546 1072.52 904.85 1074.26 903.618 1075.79C902.431 1077.24 902.643 1078.6 904.184 1079.54C905.438 1080.27 906.84 1080.82 908.139 1081.47C911.214 1082.99 913.326 1085.55 914.328 1089.32C914.566 1089.89 914.728 1090.7 915.007 1091.48C915.433 1093 915.649 1093.15 916.831 1092.91C918.027 1092.73 918.562 1092.02 918.553 1090.75C918.562 1090.18 918.382 1089.59 918.333 1089.04Z" fill="#EEAC55"/>
<path d="M430.839 301.459C430.839 304.823 432.072 307.594 433.921 309.968C435.097 311.485 436.498 312.739 437.787 314.124C438.123 314.454 438.515 314.717 438.795 315.113C439.58 316.169 439.356 317.488 438.291 318.147C437.955 318.345 437.619 318.411 437.283 318.609C433.304 320.522 430.391 323.622 429.438 328.833C429.27 329.69 429.102 330.482 428.934 331.273C428.822 331.801 428.654 332.395 428.486 332.922C428.261 333.648 427.813 334.176 427.085 334.11C426.356 334.044 425.964 333.516 425.796 332.725C425.572 331.735 425.404 330.68 425.18 329.624C424.619 326.92 424.059 324.216 422.938 321.709C422.21 319.994 421.257 318.543 419.857 317.422C418.512 316.366 418.456 315.047 419.689 313.794C420.697 312.805 421.874 311.947 422.938 311.024C425.46 308.847 426.917 305.945 427.141 302.185C427.253 301.591 427.253 300.8 427.365 300.008C427.477 298.491 427.645 298.293 428.766 298.227C429.886 298.095 430.503 298.623 430.727 299.81C430.839 300.338 430.783 300.932 430.839 301.459Z" fill="#EC3ABA"/>
</g>
</svg>
