<svg width="1400" height="1300" viewBox="0 0 1400 1300" fill="none" xmlns="http://www.w3.org/2000/svg">
<path d="M1096.21 319.774C1145.96 426.214 1076.69 534.511 995.711 609.749C986.867 618.138 979.242 627.583 973.035 637.839C960.153 655.848 951.894 674.862 947.19 695.084C935.679 749.724 943.221 804.818 955.59 860.015C987.882 1002.68 876.453 1135.97 730.204 1165.98C710.807 1170.06 691.987 1170.81 672.24 1169.2C664.85 1168.65 657.727 1167.56 650.026 1166.21C644.318 1165.07 639.186 1164.18 633.739 1162.5C616.513 1157.44 600.376 1149.58 586.069 1139.27C572.288 1129.41 560.361 1117.69 549.504 1104.86C526.494 1077.76 510.072 1047.25 488.306 1017.71C473.686 997.748 452.815 984.896 427.517 978.956C352.366 961.778 278.296 931.69 256.229 859.294C245.225 821.968 251.155 782.756 272.005 748.633C282.572 731.969 297.137 719.28 312.424 707.233C338.156 686.619 366.455 670.032 391.206 649.384C402.972 639.315 413.636 628.427 422.141 616.07C430.647 603.712 436.991 589.932 440.131 574.073C444.543 551.501 444.183 530.145 444.741 508.173C444.661 380.971 457.43 223.035 596.332 158.903C610.56 152.595 624.195 146.046 639.197 141.709C652.1 138.1 664.583 134.638 678.095 132.608C686.11 131.153 693.303 129.986 701.062 129.07C774.591 121.759 844.59 133.128 911.38 161.728C938.021 173.464 961.726 186.22 985.995 202.811C999.804 212.311 1011.04 221.366 1023.75 231.7C1031.64 238.34 1038.54 244.881 1045.6 251.817C1050.46 256.834 1055.16 261.456 1059.62 266.614C1065.1 273.201 1070.85 279.251 1075.76 286.454C1084.76 298.399 1091.63 309.657 1096.21 319.774Z" fill="#FAF8FC"/>
<path d="M963.834 1069.39C943.007 1049.65 947.521 1016.34 971.772 999.96C976.281 997.315 980.228 994.674 984.741 993.088C990.38 991.502 996.019 989.916 1001.66 989.388C1007.86 989.388 1014.07 988.857 1020.27 990.443C1032.68 993.615 1043.95 999.973 1051.29 1010.52C1052.98 1013.17 1054.67 1015.29 1055.8 1017.93C1057.49 1022.69 1059.18 1027.97 1059.75 1033.24C1060.31 1039.59 1059.18 1045.93 1056.93 1051.74C1049.6 1072.36 1028.73 1085.05 1006.17 1086.12C1002.79 1086.12 998.84 1085.59 995.456 1085.59C990.373 1085.06 985.871 1082.95 980.707 1081.1C974.302 1078.3 968.564 1074.32 963.834 1069.39Z" fill="#FAF8FC"/>
<path d="M262.677 391.172C242.98 337.723 272.64 271.858 329.801 250.809C334.651 248.828 339.76 247.458 344.993 246.733C352.952 246.056 360.911 245.375 368.87 246.056C381.172 248.092 392.026 250.809 402.158 257.582C455.678 290.191 456.42 366.919 419.795 410.924C407.761 425.829 391.661 437.206 371.765 442.978C366.701 444.336 361.629 445.695 355.847 446.372C324.736 449.766 293.622 437.544 275.34 413.71C269.977 406.813 265.711 399.221 262.677 391.172Z" fill="#FAF8FC"/>
<g style="mix-blend-mode:multiply" opacity="0.19">
<path d="M789.811 902.521L482.075 866.348L525.177 513.538L841.613 554.976L789.811 902.521Z" fill="#6F4CAC"/>
</g>
<path d="M820.451 529.196L504.013 487.776L452.231 835.325L768.669 876.745L820.451 529.196Z" fill="#8359CA"/>
<path d="M545.781 576.467L559.929 594.034L592.979 566.934" stroke="#05BD6B" stroke-width="39.06" stroke-miterlimit="10" stroke-linecap="round"/>
<path d="M623.926 576.193L758.261 593.784" stroke="#4B2290" stroke-width="5" stroke-miterlimit="10" stroke-linecap="round"/>
<path d="M620.815 597.035L712.136 608.994" stroke="#4B2290" stroke-width="5" stroke-miterlimit="10" stroke-linecap="round"/>
<path d="M566.957 656.269L533.903 683.369" stroke="#ED295C" stroke-width="5" stroke-miterlimit="10" stroke-linecap="round"/>
<path d="M564.896 685.304L535.979 654.323" stroke="#ED295C" stroke-width="5" stroke-miterlimit="10" stroke-linecap="round"/>
<path d="M610.372 667.159L744.704 684.75" stroke="#4B2290" stroke-width="5" stroke-miterlimit="10" stroke-linecap="round"/>
<path d="M607.253 688.008L673.673 696.705" stroke="#4B2290" stroke-width="5" stroke-miterlimit="10" stroke-linecap="round"/>
<path d="M518.664 758.405L532.812 775.972L565.863 748.872" stroke="#05BD6B" stroke-width="5" stroke-miterlimit="10" stroke-linecap="round"/>
<path d="M596.794 758.126L625.544 761.889" stroke="#4B2290" stroke-width="5" stroke-miterlimit="10" stroke-linecap="round"/>
<path d="M593.699 778.965L702.038 793.15" stroke="#4B2290" stroke-width="5" stroke-miterlimit="10" stroke-linecap="round"/>
<g style="mix-blend-mode:multiply" opacity="0.19">
<path d="M771.803 833.903H452.295L496.208 488.555L771.803 523.516V678.709V833.903Z" fill="#363636"/>
</g>
<path d="M747.022 446.932H427.513V811.142H747.022V446.932Z" fill="#8359CA"/>
<path d="M502.422 767.085L514.202 776.336L541.19 747.104" stroke="#321564" stroke-width="7" stroke-miterlimit="10" stroke-linecap="square"/>
<path d="M561.072 702.587H655.983" stroke="#4B2291" stroke-width="5" stroke-miterlimit="10" stroke-linecap="square"/>
<path d="M561.072 719.587H625.593" stroke="#4B2291" stroke-width="5" stroke-miterlimit="10" stroke-linecap="square"/>
<path d="M561.072 736.587H655.983" stroke="#4B2291" stroke-width="5" stroke-miterlimit="10" stroke-linecap="square"/>
<path d="M561.072 753.587H625.593" stroke="#4B2291" stroke-width="5" stroke-miterlimit="10" stroke-linecap="square"/>
<mask id="mask0_60_3068" style="mask-type:alpha" maskUnits="userSpaceOnUse" x="471" y="490" width="238" height="223">
<path d="M589.525 490.816C524.091 490.816 471.044 540.535 471.044 601.869C471.044 663.203 524.091 712.918 589.525 712.918C654.959 712.918 708.004 663.2 708.004 601.869C708.004 540.538 654.959 490.816 589.525 490.816ZM589.525 678.121C544.596 678.121 508.159 643.981 508.159 601.857C508.159 559.733 544.583 525.593 589.525 525.593C634.468 525.593 670.891 559.733 670.891 601.857C670.891 643.981 634.455 678.121 589.525 678.121Z" fill="#D8C7F0"/>
</mask>
<g mask="url(#mask0_60_3068)">
<path d="M589.525 601.869L708.004 490.816H471.044V601.869H589.525Z" fill="#00CC99"/>
</g>
<path d="M589.492 601.874L685.813 511.592" stroke="#502D8C" stroke-width="6" stroke-miterlimit="10" stroke-linecap="square"/>
<path d="M467.761 603.63H711.245" stroke="#6336AE" stroke-width="6" stroke-miterlimit="10" stroke-linecap="square"/>
<g opacity="0.21">
<path opacity="0.59" d="M684.34 759.223C703.632 759.223 722.134 752.04 735.775 739.254C749.417 726.467 757.081 709.125 757.081 691.043C757.081 653.389 724.516 622.862 684.34 622.862C644.164 622.862 611.602 653.386 611.602 691.043C611.602 728.7 644.173 759.223 684.34 759.223Z" fill="white" stroke="#545454" stroke-width="0.91" stroke-miterlimit="10"/>
<path d="M684.34 759.223C703.632 759.223 722.134 752.04 735.775 739.254C749.417 726.467 757.081 709.125 757.081 691.043C757.081 653.389 724.516 622.862 684.34 622.862C644.164 622.862 611.602 653.386 611.602 691.043C611.602 728.7 644.173 759.223 684.34 759.223Z" stroke="#545454" stroke-width="15" stroke-miterlimit="10" stroke-linecap="round"/>
<path d="M810.598 808.53L735.785 739.259" stroke="#545454" stroke-width="15" stroke-miterlimit="10" stroke-linecap="square"/>
</g>
<path opacity="0.59" d="M678.663 732.64C697.955 732.64 716.457 725.457 730.098 712.671C743.74 699.884 751.404 682.542 751.404 664.46C751.404 626.806 718.839 596.279 678.663 596.279C638.487 596.279 605.921 626.806 605.921 664.46C605.921 702.114 638.49 732.64 678.663 732.64Z" fill="#8359CA"/>
<path d="M678.663 732.64C697.955 732.64 716.457 725.457 730.098 712.671C743.74 699.884 751.404 682.542 751.404 664.46C751.404 626.806 718.839 596.279 678.663 596.279C638.487 596.279 605.921 626.806 605.921 664.46C605.921 702.114 638.49 732.64 678.663 732.64Z" stroke="#361868" stroke-width="15" stroke-miterlimit="10" stroke-linecap="round"/>
<path d="M804.922 781.941L730.112 712.669" stroke="#361868" stroke-width="15" stroke-miterlimit="10" stroke-linecap="square"/>
<path d="M925.236 1006.26C924.529 1003.27 925.269 1000.51 926.755 997.946C927.699 996.311 928.939 994.857 930.031 993.313C930.322 992.938 930.688 992.609 930.905 992.189C931.525 991.06 931.007 989.94 929.725 989.611C929.323 989.516 928.948 989.538 928.546 989.444C923.873 988.703 920.093 986.648 917.974 982.241C917.613 981.518 917.266 980.855 916.919 980.191C916.688 979.748 916.383 979.261 916.091 978.832C915.698 978.24 915.106 977.879 914.338 978.114C913.57 978.348 913.26 978.913 913.246 979.658C913.214 980.592 913.255 981.572 913.237 982.566C913.204 985.108 913.171 987.65 912.496 990.151C912.075 991.854 911.357 993.375 910.09 994.712C908.868 995.976 909.085 997.163 910.672 997.981C911.963 998.618 913.407 999.096 914.744 999.661C917.908 1000.99 920.083 1003.22 921.114 1006.51C921.359 1007.01 921.526 1007.72 921.813 1008.39C922.252 1009.72 922.474 1009.85 923.691 1009.64C924.922 1009.49 925.472 1008.87 925.463 1007.76C925.472 1007.26 925.287 1006.75 925.236 1006.26Z" fill="#EEAC55"/>
<path d="M423.425 319.315C423.425 322.249 424.694 324.665 426.597 326.736C427.808 328.06 429.25 329.153 430.577 330.361C430.923 330.649 431.327 330.879 431.615 331.224C432.423 332.144 432.192 333.295 431.096 333.87C430.75 334.043 430.404 334.101 430.058 334.273C425.963 335.942 422.963 338.646 421.983 343.191C421.81 343.939 421.637 344.629 421.464 345.319C421.348 345.78 421.175 346.297 421.002 346.758C420.772 347.39 420.31 347.851 419.56 347.793C418.811 347.736 418.407 347.275 418.234 346.585C418.003 345.722 417.83 344.801 417.599 343.881C417.023 341.522 416.446 339.163 415.292 336.977C414.542 335.481 413.562 334.216 412.12 333.238C410.736 332.317 410.678 331.166 411.947 330.073C412.985 329.21 414.196 328.462 415.292 327.657C417.888 325.758 419.387 323.227 419.618 319.948C419.733 319.43 419.733 318.74 419.849 318.049C419.964 316.726 420.137 316.553 421.291 316.496C422.444 316.381 423.079 316.841 423.309 317.877C423.425 318.337 423.367 318.855 423.425 319.315Z" fill="#EC3ABA"/>
<mask id="mask1_60_3068" style="mask-type:alpha" maskUnits="userSpaceOnUse" x="471" y="681" width="57" height="54">
<path d="M519.144 726.715C530.127 716.421 530.127 699.731 519.144 689.438C508.162 679.144 490.356 679.144 479.373 689.438C468.391 699.731 468.391 716.421 479.373 726.715C490.356 737.009 508.162 737.009 519.144 726.715Z" fill="url(#paint0_linear_60_3068)"/>
</mask>
<g mask="url(#mask1_60_3068)">
<path d="M519.078 770.265C511.155 770.444 503.142 770.404 495.222 770.123C493.122 767.035 489.544 764.388 486.521 761.46C482.011 757.17 480.453 752.4 481.289 747.641C481.427 746.589 481.635 745.516 481.89 744.45C482.659 741.254 483.855 740.62 484.888 737.416C485.353 736.135 486.675 735.012 488.379 734.036C490.447 732.786 493.17 731.784 496.01 731.084C506.703 728.409 520.262 730.498 526.375 735.63C527.537 736.564 528.457 737.733 529.067 739.05C530.116 741.596 530.369 741.644 529.909 744.24C529.754 745.116 529.523 745.98 529.218 746.821C526.574 754.034 523.229 761.129 520.237 768.305C519.53 769.52 519.078 770.265 519.078 770.265Z" fill="#8F7FF5"/>
<path d="M502.152 728.56C500.564 739.175 489.506 748.103 477.735 747.54C476.155 747.461 474.574 747.059 472.994 746.657C472.031 746.343 471.116 745.91 470.275 745.37C469.04 744.697 467.941 743.825 467.027 742.795C466.354 742.024 465.82 741.155 465.447 740.222C461.863 731.454 468.445 722.773 475.641 717.143C476.424 716.535 477.245 715.971 478.1 715.455C481.344 713.442 484.591 712.156 488.366 711.835C489.509 711.767 490.657 711.821 491.787 711.995C493.718 712.235 495.299 713.047 496.876 714.1C498.835 715.522 500.351 717.41 501.265 719.569C501.526 720.374 501.79 721.097 501.975 721.876C502.487 724.073 502.547 726.342 502.152 728.56V728.56Z" fill="#321564"/>
<path d="M495.206 710.513C492.997 725.699 486.27 740.592 478.756 736.03C478.136 735.609 477.604 735.083 477.187 734.481C476.59 733.611 476.089 732.686 475.691 731.721C474.608 728.967 474.047 725.35 474.123 721.648C474.221 717.216 474.949 712.815 476.289 708.563C479.354 698.748 484.176 694.621 489.11 693.498C489.44 693.411 489.79 693.411 490.12 693.498C491.428 693.842 492.646 694.703 493.744 696.597C493.968 697.123 494.193 697.544 494.417 698.062C494.742 698.931 494.992 699.823 495.164 700.729C495.325 701.56 495.429 702.399 495.475 703.242C495.596 705.668 495.506 708.1 495.206 710.513V710.513Z" fill="#321564"/>
<path d="M534.442 707.574C534.341 715.053 529.202 721.056 522.966 720.99C517.633 721.517 514.712 720.012 512.621 717.571C510.53 715.129 509.309 711.717 511.855 707.327C511.956 699.848 517.095 693.845 523.331 693.911C529.567 693.976 534.543 700.095 534.442 707.574Z" fill="#321564"/>
<path d="M504.479 734.461C503.801 734.461 503.15 734.208 502.671 733.759C502.191 733.309 501.922 732.7 501.922 732.064V722.81C501.922 722.174 502.191 721.564 502.671 721.115C503.15 720.666 503.801 720.413 504.479 720.413V720.413C505.157 720.413 505.807 720.666 506.287 721.115C506.766 721.564 507.036 722.174 507.036 722.81V732.064C507.036 732.7 506.766 733.309 506.287 733.759C505.807 734.208 505.157 734.461 504.479 734.461Z" fill="url(#paint1_linear_60_3068)"/>
<path d="M503.584 725.64C497.892 725.64 492.714 721.431 491.515 715.381L489.455 704.387C488.114 697.632 492.318 691.171 498.65 691.171H508.543C514.872 691.171 519.079 697.632 517.738 704.387L515.675 715.381C514.454 721.436 509.279 725.64 503.584 725.64Z" fill="url(#paint2_linear_60_3068)"/>
<path d="M499.228 707.388C499.118 708.673 494.235 708.468 494.347 707.231" stroke="#B592F3" stroke-miterlimit="10" stroke-linecap="square"/>
<path d="M502.907 709.935L502.551 710.405C502.411 710.589 502.314 710.8 502.267 711.022C502.22 711.244 502.225 711.473 502.281 711.694C502.337 711.914 502.443 712.121 502.592 712.299C502.74 712.478 502.928 712.624 503.142 712.728L503.405 712.857" stroke="#B89CE8" stroke-miterlimit="10" stroke-linecap="square"/>
<path d="M511.496 706.079C511.639 707.281 506.806 707.978 506.677 706.816" stroke="#B592F3" stroke-miterlimit="10" stroke-linecap="square"/>
<path d="M500.395 696.535C495.624 713.045 473.592 720.963 457.518 713.818C456.418 713.292 455.498 712.613 454.487 711.924C452.834 710.632 451.641 709.256 450.356 707.533C449.83 706.853 449.427 706.097 449.16 705.295C448.608 703.77 448.511 702.132 448.88 700.56C449.983 695.48 454.493 692.294 459.076 690.229C464.218 687.817 468.995 685.149 474.136 682.911C482.402 679.38 496.18 675.595 500.496 685.923C501.042 687.107 501.317 688.386 501.302 689.677C501.451 691.995 501.144 694.32 500.395 696.535V696.535Z" fill="#321564"/>
<path d="M505.071 700.117C501.162 699.609 497.867 698.012 495.711 695.836C493.556 693.661 492.57 690.875 493.314 687.945C494.058 685.014 496.401 682.512 499.584 680.842C502.955 679.079 506.839 678.374 510.668 678.829C514.619 679.311 517.794 681.013 519.747 683.357C520.728 684.496 521.415 685.831 521.756 687.26C522.097 688.688 522.082 690.171 521.712 691.593C520.931 694.537 518.728 696.92 515.75 698.433C512.772 699.946 508.984 700.622 505.071 700.117Z" fill="#321564"/>
<path d="M511.413 713.039C511.784 711.163 513.305 709.203 515.432 707.906C517.663 706.509 520.39 705.985 523.027 706.449C525.255 706.975 526.763 708.204 527.579 709.732C528.396 711.26 528.503 713.128 528.163 714.843C527.484 717.038 525.928 718.902 523.818 720.047C522.772 720.569 521.62 720.877 520.437 720.953C519.255 721.029 518.069 720.87 516.956 720.486C515.634 720.01 514.352 719.371 513.479 718.408C511.798 717 510.919 715.122 511.413 713.039Z" fill="#321564"/>
<path d="M498.469 716.355C498.418 716.349 498.365 716.357 498.319 716.379C498.273 716.401 498.234 716.435 498.209 716.478C498.184 716.52 498.173 716.569 498.178 716.618C498.183 716.666 498.203 716.712 498.236 716.75C499.106 717.752 501.506 720.917 503.74 720.917C505.921 720.917 507.95 717.371 508.938 716.1C508.971 716.058 508.989 716.007 508.989 715.955C508.989 715.903 508.97 715.852 508.937 715.81C508.904 715.769 508.857 715.738 508.803 715.724C508.75 715.709 508.693 715.711 508.641 715.729C507.56 716.134 503.664 715.484 503.642 716.781C502.407 715.461 499.499 716.505 498.469 716.355Z" fill="#8F7FF5"/>
<path d="M498.756 716.857C498.756 716.857 501.083 719.596 503.528 719.596C505.972 719.596 508.554 716.221 508.554 716.221C508.554 716.221 506.028 717.239 503.657 717.239C502.016 717.217 500.379 717.09 498.756 716.857V716.857Z" fill="#E7DDF8"/>
</g>
<defs>
<linearGradient id="paint0_linear_60_3068" x1="499.258" y1="700.489" x2="499.258" y2="728.565" gradientUnits="userSpaceOnUse">
<stop stop-color="#FFE887"/>
<stop offset="0.17" stop-color="#FDDF7B"/>
<stop offset="0.49" stop-color="#F8C65D"/>
<stop offset="0.9" stop-color="#EF9E2B"/>
<stop offset="1" stop-color="#ED931D"/>
</linearGradient>
<linearGradient id="paint1_linear_60_3068" x1="504.479" y1="724.214" x2="504.479" y2="730.165" gradientUnits="userSpaceOnUse">
<stop stop-color="#A387D2"/>
<stop offset="0.42" stop-color="#BEA7E4"/>
<stop offset="0.79" stop-color="#CBB0FB"/>
<stop offset="1" stop-color="#CBB2F3"/>
</linearGradient>
<linearGradient id="paint2_linear_60_3068" x1="507.123" y1="714.221" x2="495.295" y2="677.708" gradientUnits="userSpaceOnUse">
<stop stop-color="#CBB3F4"/>
<stop offset="0.21" stop-color="#CBB3F4"/>
<stop offset="0.58" stop-color="#C1A9EA"/>
<stop offset="1" stop-color="#B59CDF"/>
</linearGradient>
</defs>
</svg>
