<svg width="63" height="46" viewBox="0 0 63 46" fill="none" xmlns="http://www.w3.org/2000/svg">
<path d="M3.73291 4.1344L59.2537 4.1344V35.9573H3.73291L3.73291 4.1344Z" fill="#F0B76C"/>
<path d="M59.2537 1.08752L3.73291 1.08752C2.92511 1.08844 2.15066 1.40974 1.57945 1.98094C1.00825 2.55214 0.686949 3.3266 0.686035 4.1344L0.686035 35.9573C0.686949 36.7651 1.00825 37.5396 1.57945 38.1108C2.15066 38.682 2.92511 39.0033 3.73291 39.0042H21.6756V41.7125H18.6287C18.18 41.713 17.7497 41.8915 17.4324 42.2089C17.115 42.5262 16.9365 42.9565 16.936 43.4052V44.7594C16.936 44.8492 16.9717 44.9353 17.0352 44.9988C17.0987 45.0623 17.1848 45.098 17.2746 45.098H45.7121C45.8019 45.098 45.888 45.0623 45.9515 44.9988C46.0149 44.9353 46.0506 44.8492 46.0506 44.7594V43.4052C46.0501 42.9565 45.8716 42.5262 45.5543 42.2089C45.2369 41.8915 44.8067 41.713 44.3579 41.7125H41.311V39.0042H59.2537C60.0615 39.0033 60.836 38.682 61.4072 38.1108C61.9784 37.5396 62.2997 36.7651 62.3006 35.9573V4.1344C62.2997 3.3266 61.9784 2.55214 61.4072 1.98094C60.836 1.40974 60.0615 1.08844 59.2537 1.08752V1.08752ZM45.3735 43.4052V44.4209H17.6131V43.4052C17.6134 43.136 17.7205 42.8778 17.9109 42.6874C18.1013 42.497 18.3595 42.3899 18.6287 42.3896H44.3579C44.6272 42.3899 44.8853 42.497 45.0757 42.6874C45.2661 42.8778 45.3732 43.136 45.3735 43.4052V43.4052ZM40.6339 41.7125H22.3527V39.0042H40.6339V41.7125ZM61.6235 35.9573C61.6228 36.5856 61.3729 37.188 60.9286 37.6322C60.4844 38.0765 59.882 38.3264 59.2537 38.3271H3.73291C3.10462 38.3264 2.50227 38.0765 2.05801 37.6322C1.61374 37.188 1.36384 36.5856 1.36312 35.9573L1.36312 4.1344C1.36384 3.50611 1.61374 2.90376 2.05801 2.4595C2.50227 2.01523 3.10462 1.76532 3.73291 1.76461L59.2537 1.76461C59.882 1.76532 60.4844 2.01523 60.9286 2.4595C61.3729 2.90376 61.6228 3.50611 61.6235 4.1344V35.9573Z" stroke="black" stroke-width="0.5"/>
</svg>
