<svg width="20" height="20" viewBox="0 0 20 20" fill="none" xmlns="http://www.w3.org/2000/svg">
<path d="M17.96 6.512C17.96 6.33395 17.9533 6.16082 17.945 5.99015C18.7583 5.42154 19.4425 4.71179 20 3.89456V3.89374C19.2558 4.21456 18.4642 4.4279 17.6375 4.53128C18.4875 4.03159 19.1367 3.24636 19.4417 2.30031C18.6492 2.76554 17.7742 3.09374 16.8417 3.27754C16.0892 2.48821 15.0167 2 13.8467 2C11.5767 2 9.74917 3.81415 9.74917 6.03774C9.74917 6.35774 9.77667 6.66544 9.84417 6.95836C6.43583 6.79426 3.41917 5.18605 1.3925 2.73518C1.03917 3.3399 0.830833 4.03159 0.830833 4.77579C0.830833 6.17395 1.56167 7.41292 2.6525 8.13087C1.99333 8.11856 1.3475 7.92985 0.8 7.63364V7.67795C0.8 9.63979 2.22083 11.2693 4.085 11.6451C3.45833 11.8142 2.68667 11.8076 2.23417 11.7091C2.765 13.3075 4.27333 14.4833 6.065 14.5218C4.67 15.5959 2.89833 16.2433 0.980833 16.2433C0.645 16.2433 0.3225 16.2285 0 16.1883C1.81667 17.3411 3.96833 18 6.29 18C13.835 18 17.96 11.8462 17.96 6.512Z" fill="#55ACEE"/>
</svg>
