<svg width="30" height="31" viewBox="0 0 30 31" fill="none" xmlns="http://www.w3.org/2000/svg">
<path d="M15 30.6787L14.5804 30.6729C6.49413 30.4505 5.9975e-07 23.8184 1.31134e-06 15.6787C2.03389e-06 7.41371 6.72 0.678709 15 0.67871C23.265 0.67871 30 7.41371 30 15.6787C30 23.9587 23.265 30.6787 15 30.6787ZM12.03 21.6787C12.48 22.1287 13.185 22.1287 13.62 21.6787L18.855 16.4737C19.065 16.2637 19.185 15.9787 19.185 15.6787C19.185 15.3787 19.065 15.0937 18.855 14.8837L13.62 9.67871C13.41 9.45371 13.125 9.34871 12.84 9.34871C12.54 9.34871 12.255 9.45371 12.03 9.67871C11.595 10.1287 11.595 10.8337 12.045 11.2687L16.47 15.6787L12.045 20.0887C11.595 20.5237 11.595 21.2437 12.03 21.6787Z" fill="#212121"/>
</svg>
