<svg width="54" height="42" viewBox="0 0 54 42" fill="none" xmlns="http://www.w3.org/2000/svg">
<path d="M47.7386 18.3659C47.5199 18.3659 47.3011 18.3659 47.0824 18.3222C46.3824 18.1909 45.6824 17.8847 45.0699 17.3597C40.0824 13.0284 33.6511 10.6222 27.0011 10.6222C20.3074 10.6222 13.8761 13.0284 8.84489 17.4034C8.14489 18.0159 7.22614 18.3659 6.26364 18.3659C5.21364 18.3659 4.20739 17.9722 3.46364 17.2284L1.62614 15.3909C0.838638 14.6034 0.444888 13.5534 0.488638 12.4597C0.532388 11.3659 1.01364 10.3597 1.80114 9.61594C8.75739 3.49094 17.7261 0.122192 27.0011 0.122192C36.2761 0.122192 45.2449 3.49094 52.2011 9.61594C53.0324 10.3159 53.5136 11.3659 53.5574 12.4597C53.6011 13.5534 53.1636 14.6034 52.4199 15.3909L50.5824 17.2284C49.7511 17.9722 48.7886 18.3659 47.7386 18.3659Z" fill="#0F5EF7"/>
<path d="M47.7386 18.3659C47.5199 18.3659 47.3011 18.3659 47.0824 18.3222C46.3824 18.1909 45.6824 17.8847 45.0699 17.3597C40.0824 13.0284 33.6511 10.6222 27.0011 10.6222C20.3074 10.6222 13.8761 13.0284 8.84489 17.4034C8.14489 18.0159 7.22614 18.3659 6.26364 18.3659C5.21364 18.3659 4.20739 17.9722 3.46364 17.2284L1.62614 15.3909C0.838638 14.6034 0.444888 13.5534 0.488638 12.4597C0.532388 11.3659 1.01364 10.3597 1.80114 9.61594C8.75739 3.49094 17.7261 0.122192 27.0011 0.122192C36.2761 0.122192 45.2449 3.49094 52.2011 9.61594C53.0324 10.3159 53.5136 11.3659 53.5574 12.4597C53.6011 13.5534 53.1636 14.6034 52.4199 15.3909L50.5824 17.2284C49.7511 17.9722 48.7886 18.3659 47.7386 18.3659ZM27.0011 1.87219C18.1636 1.87219 9.58864 5.06594 2.98239 10.9284C2.54489 11.3222 2.23864 11.8909 2.23864 12.5034C2.23864 13.1159 2.45739 13.6847 2.89489 14.1222L4.73239 15.9597C5.12614 16.3534 5.69489 16.6159 6.26364 16.6159C6.78864 16.6159 7.26989 16.4409 7.66364 16.0909C13.0449 11.4534 19.8699 8.87219 27.0011 8.87219C34.0886 8.87219 40.9136 11.4097 46.2511 16.0034C46.6011 16.3097 46.9949 16.5284 47.3886 16.5722C48.0886 16.7034 48.7886 16.4847 49.3136 15.9597L51.1511 14.1222C51.5886 13.6847 51.8074 13.1159 51.8074 12.5034C51.8074 11.8909 51.5011 11.3222 51.0636 10.9284C44.4136 5.10969 35.8386 1.87219 27.0011 1.87219Z" fill="black"/>
<path d="M23.0825 31.9597L23.0825 31.9598L23.0886 31.9531C24.0892 30.8726 25.5319 30.2322 27.0093 30.2322C28.4864 30.2322 29.9288 30.8723 30.9293 31.9525C31.8497 32.9531 32.328 34.1881 32.328 35.5509C32.328 36.9878 31.7726 38.3417 30.6955 39.383C29.682 40.2717 28.3995 40.8259 27.0093 40.8259H27.0088H27.0082H27.0077H27.0072H27.0067H27.0062H27.0057H27.0052H27.0047H27.0042H27.0037H27.0032H27.0027H27.0022H27.0017H27.0012H27.0007H27.0002H26.9997H26.9992H26.9987H26.9982H26.9977H26.9972H26.9968H26.9963H26.9958H26.9953H26.9948H26.9943H26.9938H26.9934H26.9929H26.9924H26.9919H26.9914H26.9909H26.9905H26.99H26.9895H26.989H26.9886H26.9881H26.9876H26.9871H26.9867H26.9862H26.9857H26.9853H26.9848H26.9843H26.9839H26.9834H26.9829H26.9825H26.982H26.9815H26.9811H26.9806H26.9802H26.9797H26.9792H26.9788H26.9783H26.9779H26.9774H26.977H26.9765H26.9761H26.9756H26.9752H26.9747H26.9743H26.9738H26.9734H26.9729H26.9725H26.972H26.9716H26.9711H26.9707H26.9702H26.9698H26.9693H26.9689H26.9685H26.968H26.9676H26.9671H26.9667H26.9663H26.9658H26.9654H26.965H26.9645H26.9641H26.9636H26.9632H26.9628H26.9624H26.9619H26.9615H26.9611H26.9606H26.9602H26.9598H26.9593H26.9589H26.9585H26.9581H26.9576H26.9572H26.9568H26.9564H26.9559H26.9555H26.9551H26.9547H26.9542H26.9538H26.9534H26.953H26.9526H26.9521H26.9517H26.9513H26.9509H26.9505H26.9501H26.9496H26.9492H26.9488H26.9484H26.948H26.9476H26.9472H26.9467H26.9463H26.9459H26.9455H26.9451H26.9447H26.9443H26.9439H26.9435H26.9431H26.9426H26.9422H26.9418H26.9414H26.941H26.9406H26.9402H26.9398H26.9394H26.939H26.9386H26.9382H26.9378H26.9374H26.937H26.9366H26.9362H26.9358H26.9354H26.935H26.9346H26.9342H26.9338H26.9334H26.933H26.9326H26.9322H26.9318H26.9314H26.931H26.9306H26.9302H26.9298H26.9294H26.929H26.9286H26.9282H26.9278H26.9274H26.927H26.9266H26.9262H26.9258H26.9255H26.9251H26.9247H26.9243H26.9239H26.9235H26.9231H26.9227H26.9223H26.9219H26.9215H26.9211H26.9208H26.9204H26.92H26.9196H26.9192H26.9188H26.9184H26.918H26.9176H26.9173H26.9169H26.9165H26.9161H26.9157H26.9153H26.9149H26.9145H26.9142H26.9138H26.9134H26.913H26.9126H26.9122H26.9118H26.9114H26.9111H26.9107H26.9103H26.9099H26.9095H26.9091H26.9087H26.9084H26.908H26.9076H26.9072H26.9068H26.9064H26.906H26.9057H26.9053H26.9049H26.9045H26.9041H26.9037H26.9034H26.903H26.9026H26.9022H26.9018H26.9014H26.901H26.9007H26.9003H26.8999H26.8995H26.8991H26.8987H26.8984H26.898H26.8976H26.8972H26.8968H26.8964H26.896H26.8957H26.8953H26.8949H26.8945H26.8941H26.8937H26.8933H26.893H26.8926H26.8922H26.8918H26.8914H26.891H26.8907H26.8903H26.8899H26.8895H26.8891H26.8887H26.8883H26.888H26.8876H26.8872H26.8868H26.8864H26.886H26.8856H26.8852H26.8849H26.8845H26.8841H26.8837H26.8833H26.8829H26.8825H26.8821H26.8817H26.8814H26.881H26.8806H26.8802H26.8798H26.8794H26.879H26.8786H26.8782H26.8779H26.8775H26.8771H26.8767H26.8763H26.8759H26.8755H26.8751H26.8747H26.8743H26.8739H26.8735H26.8731H26.8727H26.8724H26.872H26.8716H26.8712H26.8708H26.8704H26.87H26.8696H26.8692H26.8688H26.8684H26.868H26.8676H26.8672H26.8668H26.8664H26.866H26.8656H26.8652H26.8648H26.8644H26.864H26.8636H26.8632H26.8628H26.8624H26.862H26.8616H26.8612H26.8608H26.8604H26.86H26.8596H26.8592H26.8588H26.8584H26.8579H26.8575H26.8571H26.8567H26.8563H26.8559H26.8555H26.8551H26.8547H26.8543H26.8539H26.8534H26.853H26.8526H26.8522H26.8518H26.8514H26.851H26.8506H26.8501H26.8497H26.8493H26.8489H26.8485H26.8481H26.8476H26.8472H26.8468H26.8464H26.846H26.8455H26.8451H26.8447H26.8443H26.8438H26.8434H26.843H26.8426H26.8421H26.8417H26.8413H26.8409H26.8404H26.84H26.8396H26.8392H26.8387H26.8383H26.8379H26.8374H26.837H26.8366H26.8361H26.8357H26.8353H26.8348H26.8344H26.834H26.8335H26.8331H26.8326H26.8322H26.8318H26.8313H26.8309H26.8304H26.83H26.8295H26.8291H26.8287H26.8282H26.8278H26.8273H26.8269H26.8264H26.826H26.8255H26.8251H26.8246H26.8242H26.8237H26.8233H26.8228H26.8224H26.8219H26.8214H26.821H26.8205H26.8201H26.8196H26.8192H26.8187H26.8182H26.8178H26.8173H26.8168H26.8164H26.8159H26.8154H26.815H26.8145H26.814H26.8136H26.8131H26.8126H26.8122H26.8117H26.8112H26.8107H26.8103H26.8098H26.8093H26.8088H26.8084H26.8079H26.8074H26.8069H26.8064H26.8059H26.8055H26.805H26.8045H26.804H26.8035H26.803H26.8025H26.8021H26.8016C24.048 40.7007 21.8119 38.4624 21.6902 35.7079C21.6509 34.3 22.1341 32.9476 23.0825 31.9597Z" fill="#F0B76C" stroke="black"/>
<path d="M36.7923 28.4285C36.6173 28.4285 36.4423 28.4285 36.2236 28.3847C35.5673 28.2972 34.9111 28.0347 34.2986 27.5535C32.1986 25.9785 29.6611 25.1472 26.9923 25.1472C24.3236 25.1472 21.7861 25.9785 19.6861 27.5535C19.0736 28.0347 18.4173 28.2972 17.7611 28.3847C16.5361 28.5597 15.3111 28.166 14.4361 27.291L12.6423 25.4972C12.2486 25.1035 11.9423 24.666 11.7236 24.1847C11.0236 22.5222 11.5048 20.6847 12.9048 19.591C16.9298 16.3535 21.7861 14.6472 26.9923 14.6472C32.1986 14.6472 37.0548 16.3535 41.1236 19.5472C42.5236 20.641 42.9611 22.4785 42.3048 24.141C42.1298 24.6222 41.8236 25.0597 41.3861 25.4535L39.5923 27.2472C38.8486 28.0347 37.8423 28.4285 36.7923 28.4285V28.4285ZM36.4861 26.6347C37.1861 26.7222 37.8423 26.5035 38.3236 26.0222L40.1173 24.2285C40.3361 24.0097 40.5111 23.7472 40.6423 23.4847C41.0361 22.566 40.7736 21.516 39.9861 20.9035C36.3111 17.9722 31.8048 16.3972 26.9923 16.3972C22.1798 16.3972 17.6736 17.9722 13.9548 20.9035C13.1673 21.516 12.9486 22.5222 13.2986 23.4847C13.3861 23.7472 13.5611 23.966 13.8236 24.2285L15.6173 26.0222C16.0986 26.5035 16.7986 26.7222 17.4548 26.6347C17.8048 26.591 18.1986 26.416 18.5923 26.1097C20.9986 24.316 23.9298 23.3535 26.9486 23.3535C30.0111 23.3535 32.8986 24.316 35.3048 26.1097C35.7423 26.416 36.1361 26.591 36.4861 26.6347V26.6347Z" fill="black"/>
</svg>
